<svg xmlns="http://www.w3.org/2000/svg" viewBox="0 0 396 396"><defs><style>.cls-1{fill:#bdbdbd;}.cls-2{fill:#ddd;}.cls-3{fill:#cbcbcb;}.cls-4{fill:#464646;}.cls-5{fill:#e9e9e9;}.cls-6{fill:#757575;}.cls-7{fill:#555;}.cls-8{fill:#c7c7c7;}.cls-9{fill:#939393;}.cls-10{fill:#fff;}.cls-11{fill:#dfdfdf;}.cls-12{fill:#6a6a6a;}.cls-13{fill:#818181;}.cls-14{fill:#969696;}</style></defs><g id="レイヤー_1" data-name="レイヤー 1"><path class="cls-1" d="M204,315.08c-2.73-.12-5.43-.63-8.15-.79-2-.16-4-.13-5.94-.24s-4.13-.32-6.2-.42c-4.82-.31-9.66.05-14.48-.19-2-.14-4-.16-6-.24-1.1-.05-2.21-.15-3.31-.23-1.29,0-2.58,0-3.87-.07s-2.86-.17-4.29-.24-2.65,0-4,0a19.05,19.05,0,0,1-3.85-.3c-1.08-.24-2.1-.71-3.17-1a11.8,11.8,0,0,0-3.4-.44,17.44,17.44,0,0,1-4.67-.41c-.72-.22-1.34-.71-2.05-1h0a11.74,11.74,0,0,0-3-.72c-1-.23-2-.27-3-.52h0a17.88,17.88,0,0,1-5.73-2.06h0c-1.59-.79-3.13-1.68-4.73-2.46-.6-.29-1.21-.56-1.82-.82a6.48,6.48,0,0,1-1.51-.76,4.64,4.64,0,0,1-1.44-2.43,5,5,0,0,1,.35-2.35c.42-1.17.7-2.52,1.75-3.3a39.42,39.42,0,0,1,10.5-6.27,58.54,58.54,0,0,1,10-2.71c3.35-.67,6.74-1.3,10.14-1.65s6.56-1.11,9.85-1.46,6.67-.41,10-.7c4.56-.28,9.14-.28,13.7-.43a23.85,23.85,0,0,1,4.14.22c.4.2-3.51.49-3.45.55,1.41-.09,2.83-.3,4.24-.39,3.13-.05,6.26-.1,9.37-.38a42.57,42.57,0,0,1,7.65-.27c2.26.11,4.53.44,6.79.38,4.84.07,9.68-.3,14.51-.24,8.21.49,16.41,1.45,24.55,2.63,3.91.64,7.6,2.21,11.26,3.68a67.26,67.26,0,0,1,6.48,2.74c1.36.84,2.22,2.23,3.28,3.38a22.88,22.88,0,0,1,3.21,4.26A9.53,9.53,0,0,1,269,300a9.05,9.05,0,0,1,.56,2.35,10.33,10.33,0,0,1-2.57,7.25,5.46,5.46,0,0,1-2.37,1.24,28.45,28.45,0,0,1-6.8,1.2c-2.34.2-4.64.78-7,.9-2.06.07-4.13-.08-6.19-.06h0a46.72,46.72,0,0,0-4.7.57c-2.13.14-4.27.16-6.4.12-1.3,0-2.6-.11-3.9,0a36.23,36.23,0,0,1-5.2.33c-1,0-2.06-.42-3.1-.5a29.42,29.42,0,0,0-4.18.4c-1.07.12-2.15.11-3.22.17-1.93.17-3.87.34-5.8.55C206.74,314.66,205.39,315.05,204,315.08Z"/></g><g id="レイヤー_7" data-name="レイヤー 7"><path class="cls-2" d="M197.09,323.8a13.09,13.09,0,0,1-2.55-.38c-.92-.2-1.86-.33-2.78-.56h0c-.29-.07-.6-.14-.89-.24h0c-1-.34-2.09-.48-3.12-.79-1.25-.42-2.49-.87-3.7-1.4a23.68,23.68,0,0,1-3.72-2.21c-1.42-1-2.7-2.19-4.09-3.23s-3.12-1.67-3.64-3.37l2.55-2.17c1.85-.07,3.7-.36,5.56-.47,2.31-.16,4.66-.13,7-.28,4.65-.17,9.32-.57,14-.41,4.83.33,9.63,1.08,14.48,1.16.71,0,1.42,0,2.14,0s1.95.11,1.92,1.11a3.93,3.93,0,0,1-.54,1.85c-.3.58-.63,1.13-1,1.67-.93,1.37-2.4,2.22-3.61,3.3-.92.76-1.78,1.59-2.71,2.34a18.81,18.81,0,0,1-3.24,2c-1,.38-2.13.63-3.2.93s-2,.55-3.1.72A39.14,39.14,0,0,1,197.09,323.8Z"/><path class="cls-3" d="M287.46,301.29c-1.68-.16-2.27-2-3.29-3.08a11.54,11.54,0,0,0-1.71-1.57,17.1,17.1,0,0,0-2.88-2.12,19.08,19.08,0,0,0-3.53-1.69c-2.09-.91-4.23-1.68-6.32-2.59a21.38,21.38,0,0,0-2.18-.85A22.22,22.22,0,0,0,265,289c-1.91-.25-3.81-.55-5.71-.83-2.46-.3-4.94-.23-7.4-.35a18.34,18.34,0,0,1-3.91-.4c-.92-.21-2.48-.92-1.45-2a3.87,3.87,0,0,1,1.36-.6,17.53,17.53,0,0,1,2.68-.58,44.5,44.5,0,0,1,9.72-.15c1.89.15,3.75.51,5.61.83.64.12,1.3.24,1.94.39a2.47,2.47,0,0,1,1.1.45,29.3,29.3,0,0,1,6.17,1.52c2.42.87,4.49,2.47,6.84,3.49,1.27.57,2.56,1.1,3.79,1.73a5.83,5.83,0,0,1,2.83,2.56,6.92,6.92,0,0,1,.74,2.16,5,5,0,0,1-.16,1.71,4.54,4.54,0,0,1-.83,1.86c-.2.23-.41.53-.74.55Z"/><path class="cls-4" d="M109.5,300.75c-.68-.07-.44-1-.42-1.49s.11-1.11.19-1.65a7.94,7.94,0,0,1,.43-1.87,3.12,3.12,0,0,1,1-.91h0l.22-.14c.13-.62.7-1,1.17-1.34a8.86,8.86,0,0,1,2.61-1.3c.82-.25,1.69-.31,2.53-.49,1.94-.36,3.8-1.05,5.71-1.52a25.77,25.77,0,0,1,3.22-.72c1-.09,1.89-.19,2.82-.36,1.69-.26,3.29-.88,5-1.11.92-.14,1.84-.3,2.77-.39.45,0,.91.07,1.37,0,.77-.08,1.55-.11,2.32-.2s1.67-.3,2.51-.45,1.6-.4,2.42-.52,1.73-.18,2.59-.35a89.13,89.13,0,0,1,10.91-1.62c1.14-.07,2.27-.28,3.4-.43s2.47-.29,3.69-.46a42,42,0,0,1,4.87-.59c1.71,0,3.42.14,5.13,0,2-.16,4-.55,6.05-.64,2.76-.08,5.53-.06,8.28-.28,2.47-.21,4.91-.78,7.39-.79,3,0,5.88.65,8.84.52a37.31,37.31,0,0,0,4.22-.34,23.13,23.13,0,0,1,4-.07c1,0,1.91.15,2.86.18,1.74,0,3.48-.08,5.22-.09,1.42,0,2.85,0,4.27,0s2.59,0,3.88,0a27.51,27.51,0,0,1,3.63.33c1,.14,2,.41,3.08.54,1.46.14,3,0,4.4.18-.15.14-1.68,3.12-2,3-.37.13-.76.22-1.14.32a19.27,19.27,0,0,1-2.61.46,29.68,29.68,0,0,1-3-.11c-2-.13-4-.26-6-.48-2.37-.24-4.76-.43-7.13-.65-1.94,0-3.89,0-5.83,0-2.85.1-5.7,0-8.54.1-1.22,0-2.44.15-3.65.22-1.43.06-2.87.09-4.3.14a36.83,36.83,0,0,1-5.25-.33,28.59,28.59,0,0,0-3.07,0c-4.08.07-8.07,1.09-12.12,1.42-3.08.41-6.18-.1-9.26,0a36.06,36.06,0,0,0-5.57.68c-2.21.34-4.44.52-6.64.85-1.71.25-3.44.1-5.16.21-2,.13-4,.49-6,.79-3.51.53-6.94,1.51-10.46,2-1.15.1-2.3,0-3.44.14-1.54.18-2.93,1-4.42,1.32-2.09.51-4.24.78-6.3,1.43a13.7,13.7,0,0,0-5,2.53c-1.17.88-2.35,1.77-3.5,2.69a10.56,10.56,0,0,0-.91,1,2.28,2.28,0,0,1-1.33.68Z"/></g><g id="レイヤー_6" data-name="レイヤー 6"><path class="cls-5" d="M215.62,313.17c-1.18-.06-2.36-.07-3.53-.21-1.62-.25-3.26-.3-4.89-.45-2.55-.2-5.11,0-7.66-.13s-4.83.34-7.25.43c-1.71.06-3.42.08-5.13,0-1.45,0-2.89-.2-4.34-.25-2.33-.15-4.66.44-7,.15a7.66,7.66,0,0,1-2.61-.74,6.49,6.49,0,0,1-2.28-2.59c-.49-1-.81-2-1.28-3s-1-1.8-1.42-2.75a33.45,33.45,0,0,1-1.72-5.21,20.6,20.6,0,0,1-.29-3.68,23.29,23.29,0,0,1,.07-2.77l.18-1.19c.14-.27.38-3.77.68-3.93.54,0,1.09-.13,1.64-.15,1,0,1.95-.28,2.93-.39s2.23-.12,3.35-.13a36,36,0,0,0,6.57-.19c1.76-.19,3.52-.42,5.29-.6,1.49-.13,3-.15,4.5-.22,2.18-.08,4.37,0,6.55,0s4.14-.19,6.2-.37c1.19-.11,2.38-.25,3.57-.25,1.85,0,3.71.18,5.57.14a56.61,56.61,0,0,1,8.34.18,19.42,19.42,0,0,1,3.31.57,2,2,0,0,1,.8.42,3.66,3.66,0,0,1,.6,1.61,15.53,15.53,0,0,1-.09,4.81c-.07.84,0,1.68-.06,2.52-.09,1.14-.31,2.28-.4,3.42a19.92,19.92,0,0,1-.91,4,31.45,31.45,0,0,1-2.08,5.31c-.56,1.08-.85,2.36-1.77,3.22a7.76,7.76,0,0,1-2.42,1.57A6.6,6.6,0,0,1,215.62,313.17Z"/><path class="cls-6" d="M113.35,293.33c-1.72,0-1-1.94-.59-2.91a17,17,0,0,0,.71-2.08c.23-1,.3-2.08.43-3.12.24-1.46.68-2.88,1-4.33a31.26,31.26,0,0,1,1.47-6.2c.55-1.34,1.17-2.65,1.84-3.93s1.52-2.39,2.29-3.58c.61-.87,1.26-1.72,1.9-2.57a31.14,31.14,0,0,1,2.22-2.23c1.19-.88,2.49-1.61,3.66-2.51,1-.7,2.07-1.43,3.17-2,1.61-.91,3.33-1.58,5-2.32s3.52-1.68,5.32-2.42c2.64-1,5.25-2.07,7.92-3,2-.58,4-1.13,6-1.79a23.94,23.94,0,0,0,5.62-2.37,12.72,12.72,0,0,0,2.17-1.54c.53-.57.95-1.23,1.42-1.84a15.28,15.28,0,0,0,1.75-2.8c.63-1.46,1.11-3,1.78-4.41a19.84,19.84,0,0,1,4.46-5.41,3.79,3.79,0,0,0,.76-1.14,6.55,6.55,0,0,0,.28-1.65,22.17,22.17,0,0,1,.27-2.57c.27-1.49.77-2.93,1.07-4.41.3-1.27.38-2.57.57-3.85s.46-2.76.57-4.15,0-2.76.21-4.13a37.23,37.23,0,0,1,1.35-4.6,18,18,0,0,0,.42-2.33,11.78,11.78,0,0,1,1-3.91,13.91,13.91,0,0,1,1.34-2.74,9.7,9.7,0,0,1,4-2.67,22.59,22.59,0,0,1,5.63-.59c2.14,0,4.3-.13,6.44-.13s4.36.22,6.53.31a43.92,43.92,0,0,1,6.68.64,5.57,5.57,0,0,1,2,.61c.17.83.31,3.5.66,4.12.41,1,.7,2.13,1.07,3.19a43.54,43.54,0,0,1,1.46,6.09,56,56,0,0,1,1.11,8c.22,1.55.57,3.1.84,4.64a31.89,31.89,0,0,0,1,4.55,18.51,18.51,0,0,0,2,4.36c1.7,2.39,3.88,4.39,5.75,6.64,1.44,1.72,2.65,3.61,3.94,5.44a10.61,10.61,0,0,0,4.27,3.95c2.12,1.27,4.35,2.33,6.54,3.47a56.82,56.82,0,0,1,5.5,2.8c4,2.22,7.35,5.39,10.92,8.2,2.12,1.61,4.22,3.24,6.17,5a18.85,18.85,0,0,1,2.59,2.38c2.95,4.1,4.54,7.17,3,12.31-1.08,4.21-3.48,7.17-8,7.71-1.53.07-3.06-.11-4.59-.09-2.69-.07-5.37.23-8.05.29a20.66,20.66,0,0,1-3.42-.27,23.8,23.8,0,0,1-3.78-1.22,17.49,17.49,0,0,1-2.45-1.41,5,5,0,0,0-1.43-.4,27.08,27.08,0,0,0-5.25-.51c-1.77-.07-3.53-.37-5.3-.35-1,.06-2.06.12-3.08.16-2,.48-4,1.05-6,1.35-2.28.38-4.59.38-6.89.63a47.27,47.27,0,0,1-8,.66c-2.69-.06-5.37.39-8.06.42-1.9,0-3.77-.43-5.66-.62-.85-.08-1.71-.1-2.57-.18s-1.71-.2-2.57-.24a22.24,22.24,0,0,1-6-.68h0l-.14-.05h0a13.8,13.8,0,0,0-1.9-.45c-1.09.12-2.17.31-3.25.48-1.39.2-2.76.49-4.14.71-1,.15-2,.18-2.94.4h0a22.27,22.27,0,0,1-3.59.84c-1,0-2.08.2-3.13.29-1.3.07-2.6.06-3.89.14-1.95.11-3.9.34-5.84.54-1.55.24-3.1.45-4.66.56a17.38,17.38,0,0,0-3.94.52,31.19,31.19,0,0,1-5.82,1.6,34.88,34.88,0,0,0-4.22.44c-1.37.29-2.7.74-4,1.1-.74.16-1.49.29-2.23.44a49.12,49.12,0,0,0-6.67,1.62A19.77,19.77,0,0,1,113.35,293.33Z"/></g><g id="レイヤー_5" data-name="レイヤー 5"><path class="cls-7" d="M221.72,202.26c-1.11,0-1.32-.69-1.36-1.67-.05-.77-.06-1.55-.13-2.32h0c0-.15-.11-.4-.07-.52a3.33,3.33,0,0,0-.78-1.35h0l0-.05h-.07a9.57,9.57,0,0,0-2.22-.77c-.63-.21-1.23-.56-1.87-.73a7.32,7.32,0,0,0-2.68.05h0c-1,.09-2,.14-3,.23h-.07c-2,.15-3.9-.22-5.86-.24a26.57,26.57,0,0,0-3.67.21,26,26,0,0,0-2.64.28c-2.8.51-5.7-.19-8.49.48h0a3.27,3.27,0,0,0-.54.13l0,0a9.91,9.91,0,0,1-3.19.6c-.62,0-1.25,0-1.87,0s-1.18.14-1.78.16h0l-.62.1h0c-.1,0-.2.06-.29.07h0a8.7,8.7,0,0,0-2.08,1.12,6.15,6.15,0,0,0-1.31,1,4.58,4.58,0,0,0-.62.89c-.15.31-.37,1-.81.67a3.18,3.18,0,0,1-.92-2.54,9.81,9.81,0,0,1,.37-2.58l0,0,0-.05c.59-1.59,1.22-3.18,1.68-4.81a17.53,17.53,0,0,1,1-2.5,8.76,8.76,0,0,1,.69-1.28,6.84,6.84,0,0,1,1-.93,12.76,12.76,0,0,1,2.64-1.25c1-.3,2-.54,2.93-.82a33.86,33.86,0,0,1,3.59-.81c.79-.09,1.59-.07,2.38-.1s1.37-.07,2.06-.06h0c1.25-.05,2.38,0,2.3-1.61a7.42,7.42,0,0,1,.6-2.71c.44-.81,1.42-1.06,2-1.77a1.88,1.88,0,0,0,.47-.71,4.77,4.77,0,0,0-.1-1.5c-.26-1.52-.64-3-1-4.52a17.2,17.2,0,0,1-.47-3.7,5.08,5.08,0,0,1,.56-2.37l0,0a3.48,3.48,0,0,1,2.54-.73h2.19l.05.05a35.38,35.38,0,0,0-.56,3.93,21.77,21.77,0,0,1-.22,2.54,30,30,0,0,0-.29,3.42,15.93,15.93,0,0,0,.22,3.84,8.22,8.22,0,0,0,1.33,2.58c.4.85.54,1.79,1,2.62s1.23.87,2.06.83l2.21-.12c1.69-.11,3.39.14,5.08,0a16.7,16.7,0,0,1,4.12.15,7.47,7.47,0,0,1,2.28,1.17l0,.07s.07,0,.07,0l0,.07h.08c.32.26.64.52.94.8,1.11,1,2.35,2,3.38,3.08a6.31,6.31,0,0,1,1.33,2.69,29.74,29.74,0,0,1,.55,4.5,11.67,11.67,0,0,1-.35,4.32,4.05,4.05,0,0,1-1.35,1.53A4,4,0,0,1,221.72,202.26Z"/><path class="cls-3" d="M221.64,308.42c-.13-.37-.6-.22-.9-.26s-.74-.07-1.11-.12a44.83,44.83,0,0,0-5.55-.35c-1.8,0-3.57-.53-5.37-.35-.9.06-1.79.2-2.69.23-2.09.05-4.18-.06-6.27.07-3.44.25-6.88.62-10.33.57-1.42-.07-2.84-.16-4.26-.14s-2.87-.14-4.3-.27c-.75,0-1.5,0-2.25-.06-.33,0-.92-.1-1.2,0a12.65,12.65,0,0,0,3,1.3,29.24,29.24,0,0,0,3.1.27c1.59,0,3.18,0,4.78-.08,1.9,0,3.8,0,5.7.1,1,0,2,.19,3,.24s2,0,3.06,0c1.69,0,3.37.08,5.06.1,2.12,0,4.24.06,6.36.14s4-.09,6-.06C218.71,309.75,221.78,310.48,221.64,308.42Z"/><path class="cls-3" d="M219.9,311.53a3.6,3.6,0,0,0-1.34-.4,24.11,24.11,0,0,0-2.55-.2,88.38,88.38,0,0,0-10.41.61c-.71.07-1.42.06-2.13.09-1,.05-2,.15-2.94.18-2.32.06-4.66,0-7-.11-2.14-.12-4.28.09-6.41.07-.79,0-3.66-.81-4.45-.69a10.36,10.36,0,0,1-1.24-.1,12.24,12.24,0,0,0-5-.09h0c-.41.08-.94.27-1,.74v.06c.3,1.23,3.62,1,4.68,1.15,2.18.07,4.37.05,6.55.05,3.53-.05,7,.4,10.56.45s7.21.43,10.81.16c2.19-.21,4.39-.42,6.56-.78,1.63-.27,3.22-.7,4.86-.82C219.7,311.87,220.07,311.76,219.9,311.53Z"/><path class="cls-8" d="M150.59,308.66a12.89,12.89,0,0,1-2.46-.48,22.24,22.24,0,0,0-3.06-.37,36.1,36.1,0,0,1-8.29-1,17.94,17.94,0,0,1-3-.89c-.6-.25-1.18-.56-1.81-.76a9.47,9.47,0,0,0-1.9-.34,22.7,22.7,0,0,1-5.18-.85c-.94-.28-1.91-.46-2.84-.76-1.37-.53-2.72-1.15-4.09-1.68s-2.42-1.1-3.62-1.69c-.4-.18-.81-.36-1.22-.52s-.71-.24-.89-.56c-.34-.8.85-1.68,1.41-2.09,1.23-.6,2.64-1,3.92-1.64a22.46,22.46,0,0,1,4.54-1.53,29.8,29.8,0,0,1,5.21-1.1c1.91-.27,3.74-.95,5.63-1.3a33.08,33.08,0,0,1,3.43-.3c1.66-.18,3.33-.31,5-.6s3.27-.83,4.93-1.17,4.41-.64,6.22-1l0,.06a23.34,23.34,0,0,0-1.67,7,27.1,27.1,0,0,0-.15,6.85,23,23,0,0,0,.81,3.59C152.1,307,153,308.64,150.59,308.66Z"/><path class="cls-9" d="M231.12,238.51s0-.11,0-.16v0c-.22-.79-.63-1.51-.93-2.28a22.07,22.07,0,0,0-2.11-3.31c-.61-.81-1.47-1.39-2.07-2.2a8.78,8.78,0,0,1-1.14-2.32,25.33,25.33,0,0,1-.51-2.71c-.44-2.26-.84-4.52-1.34-6.77-.22-1.37-.36-2.77-.67-4.13-.36-1.57-1-3.07-1.22-4.68-.15-1-.23-2.05-.35-3.07s-.11-1.89-.23-2.83q-.22-1.68-.39-3.36a19.43,19.43,0,0,1-.24-3.23h0a.62.62,0,0,0-.13-.55,3.44,3.44,0,0,0-.38-.46h0l0-.05h-.07a9.57,9.57,0,0,0-2.22-.77c-.63-.21-1.23-.56-1.87-.73a7.32,7.32,0,0,0-2.68.05h0c-1,.09-2,.14-3,.23h-.07a5.89,5.89,0,0,0-1.22,2.08,10,10,0,0,0-.28,3.08,17.29,17.29,0,0,0,1,3.59c1.11,3.5,3,6.75,3.7,10.37l0,0a3.88,3.88,0,0,0,.17,1c.14.62.27,1.24.37,1.87a32.81,32.81,0,0,1,.29,4.2c0,1,0,2,0,2.94a7.08,7.08,0,0,0,.29,2.55c.55,1.62,2.2,2.35,3.67,2.95a11.48,11.48,0,0,1,2.63,1.67,8.12,8.12,0,0,1,2.22,3.38c.4.85.86,1.67,1.29,2.5a4,4,0,0,0,1.21,1.17,7.87,7.87,0,0,0,2.94,1.23,16.35,16.35,0,0,0,2.06.42,1.68,1.68,0,0,0,1.1-.5A2,2,0,0,0,231.12,238.51Z"/><path class="cls-9" d="M288.68,293.11a21.72,21.72,0,0,0-1.82-6c-.66-1.76-1.11-3.58-1.72-5.34-.44-1.2-.75-2.45-1.21-3.65-.79-1.88-1.59-3.76-2.36-5.65s-1.59-3.91-2.51-5.81c-.38-.71-.81-1.4-1.2-2.11a14.74,14.74,0,0,0-1.31-2.19,8.52,8.52,0,0,0-2.87-2.64c-.54-.18-1.12-.1-1.67-.25A13.57,13.57,0,0,1,267.5,257a11.41,11.41,0,0,0-4.9-2.33,23,23,0,0,0-4.2-.78,10.9,10.9,0,0,1-3.8-1,18.82,18.82,0,0,0-2.18-1,49.23,49.23,0,0,0-4.83-2c-.92-.3-1.85-.61-2.78-.85a4.85,4.85,0,0,1-1.56-.51l-.05,0-1,3.19c.47.75,1,1.45,1.47,2.21.59,1.05,1.16,2.12,1.68,3.2.57,1.34,1,2.75,1.51,4.1.75,1.85,1.29,3.78,2,5.66.54,1.59,1.24,3.13,1.64,4.77s.41,3.47.78,5.17a14.65,14.65,0,0,0,1.93,4.1,5.58,5.58,0,0,0,2.18,1.88c.54.22,1.09.38,1.64.56a11.16,11.16,0,0,0,2.73.63,40.11,40.11,0,0,1,4.08.6,12.24,12.24,0,0,0,2.26.27l2.5.19a10.75,10.75,0,0,1,1.87.24,7.25,7.25,0,0,1,1.5.75h0a15.85,15.85,0,0,0,3,1.18c.75.33,1.45.79,2.2,1.12a9.06,9.06,0,0,0,1.61.49c0,.06.12.06.18.06.78.4,1.61.8,2.41,1.18a12.62,12.62,0,0,1,2,.87c.58.4,1.07.92,1.67,1.29a13.27,13.27,0,0,0,1.57.86C287.24,293.54,288.72,294.89,288.68,293.11Z"/></g><g id="レイヤー_4" data-name="レイヤー 4"><path class="cls-10" d="M211.05,299.1A18.88,18.88,0,0,0,212,297c.27-.86.42-1.76.61-2.65a7.78,7.78,0,0,1,1.29-3.53c.63-.8,1.62-1.36,2-2.34.44-1.32-1.11-2.37-2.22-2.65a42.12,42.12,0,0,0-5.27-.48c-1.46-.11-2.91-.26-4.37-.33-1.84-.05-3.69-.07-5.53-.2a28.83,28.83,0,0,0-2.94,0,48.31,48.31,0,0,1-5.23.56c-2,0-4-.52-6.09-.57-.75-.09-6.4.46-7.24.6a6.57,6.57,0,0,0-.9.67,2.83,2.83,0,0,0-.84.95,1.37,1.37,0,0,0,.16,1.11,4.29,4.29,0,0,0,1.17,1.41,10.18,10.18,0,0,0,5,2.07c1.49.36,3.21.34,4.49,1.3a7.89,7.89,0,0,1,1.54,2.74,4.51,4.51,0,0,1,.3,1.78c-.11,1.06-.32,2.12-.38,3.19a8.76,8.76,0,0,0,.41,3.17,10.5,10.5,0,0,0,1.21,3c.39.64.76,1.29,1.14,1.93a2.51,2.51,0,0,0,2.29,1.58A10.8,10.8,0,0,0,194,310c.87-.1,1.56.55,2.25,1a2.88,2.88,0,0,0,2.16.47l0-.05.06,0a8.93,8.93,0,0,1,.85-.35,3.53,3.53,0,0,1,2.49.72,3,3,0,0,0,1.72.62,1.8,1.8,0,0,0,1.2-.56,4.41,4.41,0,0,0,.79-.88c1-1.43.9-3.23,1.55-4.78a18.06,18.06,0,0,1,1.7-3.15C209.53,301.75,210.34,300.45,211.05,299.1Z"/><path class="cls-10" d="M191.15,312.92l0-.05a.63.63,0,0,0-.58-.08c-.25-.24-.9-1.34-1.15-1.51-.7-.32-1.17.56-1.48,1.06a4.88,4.88,0,0,0-.54,1.13,10.28,10.28,0,0,0,0,2.6c0,.58.31,1.23,1,1,.3-.06.65-.24.89,0s.43.73.75,1c.23.06.43-.13.58-.28a2.29,2.29,0,0,0,.53-.87l0-.06.05,0a9.84,9.84,0,0,0,0-1.88C191.06,314.26,191.19,313.58,191.15,312.92Z"/><path class="cls-10" d="M194.16,317.57a11.34,11.34,0,0,1-.26-1.93,4.09,4.09,0,0,1,.19-1.09c0-.14-.06-.31-.05-.45h0c0-.2-.08-.4-.11-.6s.31-.58.09-.58-.63-.25-.92-.06a1.25,1.25,0,0,0-.45.91,10.39,10.39,0,0,0,0,1.58,12.16,12.16,0,0,0,.3,2.76,1.27,1.27,0,0,0,.75.67C194.12,318.7,194.18,318,194.16,317.57Z"/><path class="cls-10" d="M197.66,318c0-.44-.06-.89-.14-1.32a11.35,11.35,0,0,0-.32-1.14c-.23-.58-.29-1.34-.54-1.91a1.59,1.59,0,0,0-.65.26c-.35.29,0,1-.51,1.14-.84.47-.53,1.58-.25,2.31.16.42.15,1.06.3,1.41l0,.07a3.62,3.62,0,0,0,.13.47,1.29,1.29,0,0,0,1.34.1l.11,0,0-.06h.07A1.61,1.61,0,0,0,197.66,318Z"/><path class="cls-10" d="M200,315c-.11-.37-.3-.71-.43-1.07a2.3,2.3,0,0,0-.74-.65.56.56,0,0,0-.59.35,7,7,0,0,0,0,1.88c.09.71,0,1.44.1,2.15a3.15,3.15,0,0,0,.56,1.38l0,.05a.71.71,0,0,0,.22.15.39.39,0,0,0,.24,0c.16-.09.18-.33.2-.49a6.65,6.65,0,0,0,.06-.77,11.65,11.65,0,0,1,.13-2.44A.4.4,0,0,0,200,315Z"/><path class="cls-10" d="M202.39,317.46a16,16,0,0,0-.3-2.17c-.12-.45-.08-2.38-.78-2.19-.82.36-.35,1.45-.4,2.13,0,.29-.27.44-.44.63a1.68,1.68,0,0,0-.1,1.21,4.48,4.48,0,0,0,.55,2.05,1.35,1.35,0,0,0,.47.18c.17.07.37.19.55.09C202.42,318.94,202.37,318.08,202.39,317.46Z"/><path class="cls-10" d="M218.28,299c-.21.45-.53.85-.73,1.31a2.19,2.19,0,0,0,0,1.34c.12.47.26.94.39,1.41a13.53,13.53,0,0,1,.28,1.67c.09.35-.06,1.13.45,1.11s.83-.6,1.11-1c.43-.71.75-1.49,1.25-2.16a4.12,4.12,0,0,0,.86-1.64,2.35,2.35,0,0,0-.3-1c-.66-1.19-1.28-2.59-1.89-3.82h0a10.74,10.74,0,0,0-.56,1.19C218.86,298,218.55,298.5,218.28,299Z"/><path class="cls-10" d="M223,305.61c0-.48,0-1.72,0-2.22s-.86-.29-1.1.06c-.61.78-.9,1.76-1.43,2.59a4.23,4.23,0,0,1-1,1.07,4.59,4.59,0,0,0-1,.9,7.59,7.59,0,0,0-.39,2.73,9,9,0,0,1-1,2.86,7.57,7.57,0,0,1-1.93,2.21,14,14,0,0,1-1.61,1.38c-.83.53-1.63,1.09-2.39,1.69-.1.1-.14.07-.16.26s.27.1.41.06a3.13,3.13,0,0,0,.6-.24,24,24,0,0,0,2.33-1.4c.6-.38,1.22-.74,1.8-1.14s1.18-1,1.77-1.45a21.1,21.1,0,0,0,4.1-4.29,8.85,8.85,0,0,0,.87-2.33A10.46,10.46,0,0,0,223,305.61Z"/><path class="cls-10" d="M215.89,294.41c-.12.61,0,1.23-.14,1.85a7.15,7.15,0,0,1-.51,1.67l0,.07-.07.07a.76.76,0,0,0,.86.91c.45.14.91-.21,1.23-.5a2.8,2.8,0,0,0,1.05-1.87s0-.13-.09-.09l-.1.21a3.1,3.1,0,0,0-.33-1.89c-.07-.27-.77-.91-1-1.12s-.57-.13-.74.09A1.73,1.73,0,0,0,215.89,294.41Z"/><path class="cls-11" d="M140.92,290.34c-.25,0-2.27.27-2.45.18a5.79,5.79,0,0,0-1.61.06c-1.07.15-2.06.6-3.11.85-.46.09-.91.22-1.36.33a11.77,11.77,0,0,0-1.56.36,3,3,0,0,0-1.67.81,3.75,3.75,0,0,0-.77,1.71,12.34,12.34,0,0,0-.31,2.42c-.06,1.21-.11,2.42-.16,3.63s-.21,3,1.06,3.74c.48.2,1,.25,1.5.42a28.36,28.36,0,0,0,4.74,1.1c.8.13,1.62.2,2.42.4h0c.48.09,1.11.37,1.54,0,.23-.21.08-.53,0-.79s-.18-.77-.24-1.15a11.9,11.9,0,0,1-.05-3c.3-1.92.58-3.85.87-5.77.15-1,.25-1.92.47-2.86s.45-1.58.71-2.36h0Z"/><path class="cls-11" d="M151,306.7v-.05h0l0-.08a2,2,0,0,0-.31-.51l-.17-.24-.06,0c-.07-.26-.3-.48-.39-.74a3.49,3.49,0,0,1-.37-1.16c-.1-.13,0-.33-.14-.46-.1-1-.27-2.12-.34-3.17s-.05-1.95-.11-2.93c-.16-2.4-.38-4.95.49-7.25h0l0-.07-2-.93a6.87,6.87,0,0,0-3.58,1,2.61,2.61,0,0,0-1.11,1.54c-.14,1.23-.39,2.45-.53,3.69s-.19,2.69-.33,4a15.68,15.68,0,0,0-.29,4.53c.19,1.93,1.1,3.1,3.09,3.31a26.61,26.61,0,0,0,3.57.09c.5,0,1,0,1.5-.05S151.07,307.27,151,306.7Z"/><path class="cls-12" d="M119.56,268.9a31.34,31.34,0,0,1,3.35-5,27.78,27.78,0,0,1,3.59-3.52c.8-.74,1.53-1.57,2.37-2.29,1-.86,2.16-1.58,3.26-2.36,1.63-1.2,3.27-2.42,5-3.52.88-.47,1.87-.71,2.74-1.21,1.48-.85,3-1.71,4.5-2.44s3.39-1.41,5.07-2.15,3.06-1.64,4.69-2.26c2.13-.81,4.35-1.37,6.46-2.26,1.83-.72,3.56-1.67,5.37-2.42a20.09,20.09,0,0,1,4.73-1.34A103.11,103.11,0,0,1,182.45,237c3-.13,6.07-.37,9.11-.41s6.09.16,9.14.25c3.54.09,7.09.08,10.64.18,3.37,0,6.69.65,10,.84,3.06.17,6.14,0,9.2.31a10.44,10.44,0,0,1,3.25,1.19c1.1.49,2.21.91,3.31,1.39,1.9.8,3.83,1.51,5.69,2.41,2.08.86,4.15,1.78,6.14,2.84.37.17.72.4,1.1.54s.64,0,1,.1a13,13,0,0,1,1.88.63,20.77,20.77,0,0,1,3.73,1.75,27.9,27.9,0,0,1,3.45,2.14c.89.55,1.87,1,2.79,1.47s1.88,1.16,2.86,1.66,1.93,1,2.86,1.58,1.71,1.29,2.6,1.9a19.47,19.47,0,0,1,3.72,3.3,5.92,5.92,0,0,1,1.21,1.63c.05.12.14.26.19.39s.11.22,0,.29l-.06,0-.06,0a6.8,6.8,0,0,1-2.63-1.35A28.17,28.17,0,0,0,271,260.4a13.25,13.25,0,0,0-3.63-1.31c-1.14-.32-2.26-.69-3.41-1-1.79-.35-3.6-.63-5.4-.84-1.61-.16-3.17-.66-4.77-.86-2-.32-4.06-.38-6.08-.69s-3.95-.51-5.93-.8a69.67,69.67,0,0,0-7.35-.8,23.23,23.23,0,0,1-4.15-.71,37.35,37.35,0,0,0-6.13-.84,99.27,99.27,0,0,0-11.95-.35c-2.34.1-4.69.25-7,.42-1.91.13-3.83.37-5.75.36-3.32,0-6.63-.29-10-.3-2.21,0-4.42.22-6.63.31-1.46,0-2.94,0-4.4,0-1.62.05-3.2.47-4.8.65-2.49.19-5,.67-7.45.66a33.44,33.44,0,0,0-4.47.2c-2,.34-3.9.92-5.87,1.25-1.74.42-3.52.59-5.27,1-2.56.55-5.09,1.3-7.62,2-2.35.67-4.75,1.19-7.1,1.85a79.08,79.08,0,0,0-9.92,3.77C123.5,265.46,121.54,267.3,119.56,268.9Z"/><path class="cls-13" d="M289,300.11a2.15,2.15,0,0,0-1.27-1.73l0-.07-.39-.26-.07-.05-.86-.6a14.44,14.44,0,0,0-2.09-1.12c-.73-.36-1.45-.77-2.19-1.12s-1.7-1-2.59-1.37a11.48,11.48,0,0,0-2-1c-.53-.17-1.08-.33-1.63-.46-.29-.11-.65-.08-.89-.3a11.4,11.4,0,0,0-3-1,15.09,15.09,0,0,0-2.72-.7c-1.17-.19-2.36-.25-3.51-.52a29.71,29.71,0,0,0-7.41-1.2,21.6,21.6,0,0,0-4.6-.79c-.78-.08-1.56-.17-2.34-.2a23.34,23.34,0,0,0-2.63.23h0l0,.06a8.21,8.21,0,0,1,.75,3.88,13,13,0,0,1-.84,3.74,16.37,16.37,0,0,1-4.08,7,18.82,18.82,0,0,1-3.83,2.59,23,23,0,0,1-2.88,1.37,24.39,24.39,0,0,1-2.65,1.06c-1.33.4-2.7.66-4,1.07-.3.09-.61.17-.91.24l-.33.09c-.1,0-.25.14-.12.23a2.26,2.26,0,0,0,1,.25,10.15,10.15,0,0,0,1.83,0,30.53,30.53,0,0,1,3.31-.13,45.1,45.1,0,0,0,4.79-.16,31.82,31.82,0,0,0,3.78-.22,25.91,25.91,0,0,1,2.77-.36c1.43-.07,2.86,0,4.29-.11,1.26,0,2.53-.15,3.79-.09a6.24,6.24,0,0,1,2,.6c.47.22.89.54,1.37.73a7.11,7.11,0,0,0,2.59.42,32.48,32.48,0,0,0,5.12-.19c1.36-.19,2.66-.67,4-.93.74-.16,1.5-.19,2.24-.33s1.55-.46,2.33-.67a38.66,38.66,0,0,0,4.24-1.34c1-.39,2-.68,2.92-1.11s1.61-.72,2.44-1a8.52,8.52,0,0,0,2.65-1.31A3.82,3.82,0,0,0,289,300.11Z"/><path class="cls-13" d="M172.42,310.55a2.23,2.23,0,0,0-.12-.51c.06-.17-1.84-1.26-1.89-1.35-1.59,0-3.24-.19-4.93-.15-1.3,0-2.59.27-3.89.38h0a68.85,68.85,0,0,1-9-.06c-1,0-1.94-.05-2.91-.05-.25.05-2.11-.19-1.54.34l0,0a7,7,0,0,0,2.89.65c1.8.14,3.62,0,5.41.17,2.1.15,4.16.63,6.26.72,1.39.07,2.78.17,4.18.19,1.11,0,2.23,0,3.34.13h0a12.77,12.77,0,0,1,1.26.26c.35.09.75.25.84-.24A1.39,1.39,0,0,0,172.42,310.55Z"/><path class="cls-4" d="M224.15,231.09a1.65,1.65,0,0,0-.32-.76,5.7,5.7,0,0,0-3.16-1.55c-1-.27-2-.54-3.07-.76a55.89,55.89,0,0,0-9.36-1.54c-3.89-.17-7.8,0-11.71-.07-1.83,0-3.65-.15-5.48-.15a34,34,0,0,0-7.19.69c-1.36.3-2.75.49-4.1.84a28.26,28.26,0,0,0-5.1,1.92c-1,.66-3,1-3.8,1.92s-1.47,1.67-2.13,2.56c-.76,1.19,0,1.08,1,.93,1.32-.22,2.63-.74,3.93-1.08a37.09,37.09,0,0,1,5-1.23c1.35-.33,2.75-.51,4.11-.79a31.22,31.22,0,0,1,7.75-1c7.24.06,14.48.16,21.72.18a26.7,26.7,0,0,1,7.12.75c.71.16,1.43.33,2.15.46a3.08,3.08,0,0,0,2.29-.23A1.62,1.62,0,0,0,224.15,231.09Z"/><path class="cls-4" d="M176.48,200.38a1.63,1.63,0,0,0,.11.42h0a5.67,5.67,0,0,1,1.28,3.2,50.74,50.74,0,0,0-.43,5.78c.09,1.68.34,3.73,1.8,4.81.62.52,1.89.46,2.07-.47a2.16,2.16,0,0,0-.17-1.09c-.2-.59-.43-1.17-.62-1.77a8.86,8.86,0,0,1-.2-3.59c.15-1.22.35-2.43.59-3.63a10,10,0,0,1,1.29-3.59c1.7-1.71,4.41-1.43,6.6-1.18a3.85,3.85,0,0,1,3.24,3.9,28,28,0,0,0,.29,2.89,13.72,13.72,0,0,0,1,2.77,11.94,11.94,0,0,0,1.21,1.95,4.7,4.7,0,0,0,2.27,1.86,2.11,2.11,0,0,0,2,0l0,0c.69-.79.17-2.78-.29-3.63-.87-1.42-2.42-2.28-3.13-3.82a3.38,3.38,0,0,1-.3-2.66,8.58,8.58,0,0,0,.37-1.22c-.29-1.22,0-2.83,1.59-2.7a9.13,9.13,0,0,1,4.73,2.13c1.44,1.39,1.42,3.71,2.9,5.06.5.43,1.32.79,1.89.31a1.52,1.52,0,0,0,.34-1.35c-.05-.56-.12-1.13-.15-1.69a12.36,12.36,0,0,1,.12-2.65,5.12,5.12,0,0,1,.55-1.92,3.23,3.23,0,0,1,1.29-1.05,10.58,10.58,0,0,1,3.11-1,6.87,6.87,0,0,1,1-.18c1.14.14-1.37-.9-1.35-1-.77-.05-1.55-.11-2.33-.1-3.6.09-7.21.1-10.82.13-2.26.06-4.51.37-6.76.53s-4.29.12-6.43.12a11.13,11.13,0,0,0-4.59.47,9.43,9.43,0,0,0-3,2A2.75,2.75,0,0,0,176.48,200.38Z"/><path class="cls-14" d="M224.85,199.72h0c-.59-.21-.86-.85-1.23-1.31a7.65,7.65,0,0,0-.83-.88,3.32,3.32,0,0,0-1.18-.88l0-.06h-.05c-1-.49-1.78-1.33-2.88-1.55a5.38,5.38,0,0,0-1.25-.28,9.21,9.21,0,0,1-1.66,0h-.05l0,0,0,0a1.49,1.49,0,0,1-.84-.64,7.94,7.94,0,0,1-1.06-1.83,13.28,13.28,0,0,0-1.89-3.52c-.41-.52-.86-1-1.31-1.46a13.26,13.26,0,0,0-2.31-2.18,11.75,11.75,0,0,0-1.41-.92,7,7,0,0,0-1.5-.44c-.79-.17-1.59-.28-2.36-.51a2.44,2.44,0,0,1-1.29-.67l0,0v-.07l-.06,0a.26.26,0,0,1-.05-.09,25.73,25.73,0,0,1-.64-3.19c-.12-.73-.69-1.34-.61-2.11.14-2.28.07-4.56.13-6.84,0-1.29,0-2.58,0-3.87,0-.89-.12-1.81-.09-2.69.05.13,2,1.12,1.82,1.32v.75c0,1.13-.13,2.24-.17,3.37a36.16,36.16,0,0,0,.17,4.77c.13,1,0,2.17.68,3a2.88,2.88,0,0,0,1.17.52,1.81,1.81,0,0,1,.94.76,5.66,5.66,0,0,1,.28,1.53c.14,1.9-.43,3.37,2.16,3.15a14.87,14.87,0,0,1,2.31-.07h2.58a10,10,0,0,1,4.4.38,22.88,22.88,0,0,1,2.35,1.24,10.82,10.82,0,0,1,2.82,1.75,5.17,5.17,0,0,1,1.39,2.22h0c.43,1.21.93,2.38,1.45,3.56.35.92.66,1.86,1,2.76l0,.05,0,.06a4.87,4.87,0,0,1,.21,4,2,2,0,0,1-.23.59l0,0A1.27,1.27,0,0,1,224.85,199.72Z"/></g><g id="レイヤー_3" data-name="レイヤー 3"><path d="M143.66,248.16l0,0h0Z"/><polygon points="201.19 171.94 201.19 171.94 201.19 171.93 201.19 171.94"/><path d="M265.53,253.29h0l0,0Z"/><path d="M227.4,286.54v0Z"/><path d="M290.31,297.1c0-.7-.93-3.09-.95-3.48s-1.18-4.94-1.23-5.12c-.25-.81-.59-1.59-.87-2.39-.21-.59-.4-1.19-.6-1.78s-.41-1.22-.59-1.83c-.38-1.29-.79-2.57-1.2-3.85-.52-1.63-1.1-3.25-1.6-4.89-.25-.83-.52-1.65-.8-2.47l0-.07,0-.07s0,.05,0,.07h0c-.35-1-.73-2-1.18-2.93-.24-.51-.48-1-.77-1.51s-.57-.87-.87-1.31v0l0-.06,0,0-.19-.29-.09-.13c-.29-.41-1.44-1.94-1.57-2.12L277,262a9.22,9.22,0,0,0-.74-.79c-.27-.27-.56-.51-.85-.75s-.6-.53-.92-.77c-1.25-1-2.48-1.91-3.78-2.78l.05,0c-.41-.27-.8-.57-1.21-.84s-.75-.5-1.13-.76-1-.7-1.49-1.05l-1.42-1c-.61-.41-1.23-.83-1.87-1.2s-1.36-.8-2.05-1.17-1.52-.78-2.28-1.17l-2.25-1.19-2.25-1.21c-.77-.41-1.53-.8-2.33-1.13s-1.48-.61-2.23-.9-1.49-.52-2.22-.84l-1.16-.55-1.11-.52c-.39-.18-.77-.37-1.16-.54s-.75-.32-1.11-.5-.72-.38-1.09-.56-.67-.3-1-.47l-1.83-.94-1.78-.89h0l0,0h0c-.53-.26-1.05-.53-1.59-.75l-2.29-.95c-.72-.29-1.43-.6-2.16-.86-.16-.06-.34-.14-.52-.19l-.05,0c-.3-.64-.64-1.27-1-1.89a17.51,17.51,0,0,0-1.29-2.07,15,15,0,0,0-1.53-1.75c-.54-.56-1.13-1.07-1.72-1.58l-.11-.11h0l0,0a.14.14,0,0,1,0-.06c-.07-.23-.11-.46-.16-.7s-.1-.42-.14-.63c-.27-1.34-.4-2.7-.58-4.05s-.38-2.94-.6-4.41l-.39-2.58c-.14-.87-.25-1.75-.37-2.62s-.28-1.77-.45-2.65-.33-1.66-.47-2.49-.28-1.69-.43-2.53-.29-1.72-.45-2.57l-.15-.78a5.44,5.44,0,0,0,1.23-.37c.59-.24,1.15-.54,1.71-.83.33-.17.67-.32,1-.52a4.41,4.41,0,0,0,1-.83,3.75,3.75,0,0,0,.68-1.18,3.37,3.37,0,0,0,.21-1.18,18.32,18.32,0,0,0,0-2,2.33,2.33,0,0,0-.18-.77l-.25-.63c-.13-.4-.26-.8-.41-1.2s-.3-.71-.45-1.06c-.34-.79-.61-1.62-.9-2.44a.49.49,0,0,0,0,.11c-.28-.81-.55-1.63-.9-2.42a23.52,23.52,0,0,0-2.47-2.67l-.8-.64a11.86,11.86,0,0,0-1-.73,10.21,10.21,0,0,0-1-.53,12,12,0,0,0-2.12-.72,14.17,14.17,0,0,0-2.5-.41c-.8-.05-6.18,0-8.06,0a3.52,3.52,0,0,0,.12-.67,7.23,7.23,0,0,0,0-1.14c0-.31-.05-.62-.08-.93a9.85,9.85,0,0,0-.2-1.19,2.67,2.67,0,0,0-.48-1,2,2,0,0,0-1.17-.68,7.79,7.79,0,0,0-1.07-.12l-.27,0a.52.52,0,0,0-.25,0c0-.31,0-.61,0-.92s0-.75,0-1.12c0-.74,0-1.48.07-2.22v-.09h0s0-.06,0-.09c0-.62.1-1.24.16-1.86s.17-1.41.18-2.11c0-.89,0-1.77,0-2.66,0-.2,0-.39,0-.59a2.55,2.55,0,0,0,.73-1.15,7.57,7.57,0,0,0,.38-1.76,5.69,5.69,0,0,0-.16-1.59,11.1,11.1,0,0,0-.37-1.37,4.48,4.48,0,0,0-.93-1.68l-.15-.12a8.12,8.12,0,0,0,.07-.85c0-.86,0-1.72,0-2.58s-.08-1.75-.14-2.62-.16-1.64-.22-2.46a25,25,0,0,1,0-2.87c.07-.83.17-1.66.26-2.5a9.82,9.82,0,0,0,0-2.54,5.46,5.46,0,0,0-.2-.87,3,3,0,0,0,1.07-1.42,4.17,4.17,0,0,0,.29-1.4,7.53,7.53,0,0,0-.1-1.35,24.94,24.94,0,0,0-.53-2.6c-.21-.8-.47-1.58-.64-2.38a17.2,17.2,0,0,1-.26-2.13c-.09-1.53-.06-3.07-.19-4.61,0-.21,0-.42-.07-.63a3.54,3.54,0,0,0,1.82-2.22,6,6,0,0,0,.07-2.53,7.35,7.35,0,0,0-1-2.49.86.86,0,0,0-1.15-.3.84.84,0,0,0-.3,1.15c.11.19.23.38.33.57s.23.51.33.77.12.4.17.61a3,3,0,0,1,.06.42q0,.33,0,.66a3.31,3.31,0,0,1-.07.55,2.5,2.5,0,0,1-.07.26,1.48,1.48,0,0,1-.12.29,1.18,1.18,0,0,1-.11.19l-.08.1-.15.15-.19.15h0a2.09,2.09,0,0,0-.93-1,.84.84,0,0,0-1-.44.81.81,0,0,0-.56.49,2.63,2.63,0,0,0-.09.3c0,.09-.06.18-.09.28l-.12-.13c0-.29,0-.58,0-.88h0v0c.11-1.33.37-2.64.55-4a33.54,33.54,0,0,0,.25-4.13c0-1.27,0-2.53,0-3.8s0-2.38.1-3.56v0c0-.22.05-.43.07-.65l.16.07a3,3,0,0,0,.9.15h.23a3.42,3.42,0,0,0,1.21-.38,5.17,5.17,0,0,0,1.08-.77,4.16,4.16,0,0,0,1.23-2.55,4.21,4.21,0,0,0-.12-1.73,3.92,3.92,0,0,0-.4-.89c-.43-.73-.89-1.45-1.29-2.2-.18-.38-.34-.77-.49-1.17a23.68,23.68,0,0,1-.74-2.78c-.14-.67-.26-1.33-.34-2a.85.85,0,0,0-.55-.67c0-.5.07-1,.09-1.5v-.35c.08-.26.15-.53.22-.8s.16-.61.24-.92l.06-.22a7.53,7.53,0,0,0,1.05.13h.06a1.87,1.87,0,0,0,1.15-.33,2.65,2.65,0,0,0,.84-1,4.67,4.67,0,0,0,.47-1.36,3.81,3.81,0,0,0,.07-.75,4.33,4.33,0,0,0-.11-.89,3.94,3.94,0,0,0-1.11-1.87l-.91-.91c-.24-.28-.47-.55-.69-.85s-.37-.51-.55-.77-.35-.54-.5-.82l-.37-.68c0-.53,0-1.06.05-1.59.06-.84.16-1.68.24-2.52s.11-1.41.16-2.12a7.62,7.62,0,0,0,.81-.14,2.83,2.83,0,0,0,.83-.33,3.32,3.32,0,0,0,1.44-1.84,4.4,4.4,0,0,0,.21-1.87A5.15,5.15,0,0,0,204,63a6.1,6.1,0,0,0-.78-1.27c-.17-.21-.34-.41-.52-.61a4.27,4.27,0,0,0-1-.77h0c.07-1.15.14-2.3.16-3.46,0-1,.05-2,0-3s-.13-1.74-.2-2.6h.06a2.37,2.37,0,0,0,1.43-.66,3.52,3.52,0,0,0,.43-.51,3.67,3.67,0,0,0,.57-1.76,11.4,11.4,0,0,0-.12-2.74,7.85,7.85,0,0,0-1.2-2.88l.06-.25c.12-.61.26-1.22.35-1.84s.18-1.1.29-1.65.28-1.25.39-1.88a14.81,14.81,0,0,0,.2-1.76c.09-1.42.1-2.84.19-4.25h0v-.05l.18-2.24c0-.09,0-.18,0-.27,0-.34.06-.69.08-1,.1-1.25.12-2.51.13-3.77s0-2.58,0-3.87.1-2.53.18-3.79.24-2.48.32-3.72c.1-1.47.14-2.93.17-4.39s.1-3.17.11-4.76c0-.6,0-1.2,0-1.8a5.7,5.7,0,0,0-.06-1.09,1.44,1.44,0,0,0-.39-.8,1.37,1.37,0,0,0-.76-.37,1.25,1.25,0,0,0-1,.34,1.62,1.62,0,0,0-.41.72.83.83,0,0,0,.53,1c0,.15,0,.3,0,.44a.41.41,0,0,0,0-.11c-.17,2.43-.32,4.87-.34,7.31,0,.68,0,1.35,0,2s0,1.19,0,1.78a.87.87,0,0,0-.7-.65.86.86,0,0,0-.23,0v-.4a.82.82,0,0,0,0-.27.83.83,0,0,0-.94-.72.86.86,0,0,0-.7.61,1.8,1.8,0,0,0,0,.52c0,.38,0,.76,0,1.15s0,.9,0,1.35l-.14,0-.39-.1-.18-.07-.13-.08-.13-.1-.11-.11-.06-.08-.1-.17-.09-.21a2,2,0,0,1-.07-.23,2.34,2.34,0,0,1,0-.26h0v-.08h0c0-.21,0-.42,0-.62a21.71,21.71,0,0,1,.29-2.29c0-.07,0-.14,0-.2A20.87,20.87,0,0,1,200,7.33c.28-.85.55-1.71.78-2.57A25.3,25.3,0,0,0,201.36,2a17.24,17.24,0,0,0,.2-2.38.85.85,0,0,0-.84-.84.85.85,0,0,0-.84.84c0,.16,0,.32,0,.48a23.77,23.77,0,0,1-.35,2.67v0c-.37,1.71-.93,3.37-1.47,5a13.78,13.78,0,0,0-.59,2.54c-.07.4-.11.81-.14,1.21,0,.24,0,.47,0,.71a3.25,3.25,0,0,0,0,.54,1.49,1.49,0,0,0,0,.21,3.15,3.15,0,0,0,1.4,2.37,3.68,3.68,0,0,0,1.21.45c.13,0,.27,0,.41.06a26,26,0,0,1-.37,2.79c-.29,1.31-.7,2.59-1,3.88-.17.65-.33,1.31-.45,2s-.21,1.35-.28,2c0,.44-.07.88-.1,1.32s-.05.84,0,1.26a5.3,5.3,0,0,0,.17,1.25,4.08,4.08,0,0,0,.63,1.29,4.83,4.83,0,0,0,.85.84,3.68,3.68,0,0,0,.64.37,3.26,3.26,0,0,0,.63.18,2.49,2.49,0,0,0,.46,0l.14,0a.75.75,0,0,0-.05.26c0,.35,0,.7,0,1.06s0,.87-.05,1.31a14.49,14.49,0,0,1-.22,1.61c0,.13,0,.25-.08.38-.12.52-.25,1-.42,1.54-.09.22-.17.44-.25.65-.31.76-.68,1.49-1,2.25s-.59,1.64-.83,2.47a12.47,12.47,0,0,0-.47,2.48,4.41,4.41,0,0,0,.07,1.45,3.57,3.57,0,0,0,.52,1.16,3.5,3.5,0,0,0,.94.9l0,0c0,.76,0,1.51-.05,2.27,0,1-.07,2-.09,3a.86.86,0,0,0-.23.58c0,.52,0,1.05-.05,1.58-.11,1.54-.32,3.07-.45,4.61-.07.81-.11,1.62-.13,2.44q0,.58,0,1.17a6.24,6.24,0,0,0,0,1.14,2.21,2.21,0,0,0,.32.9l-.09,2.88A2.25,2.25,0,0,1,199,71a.85.85,0,0,0-1-.58.84.84,0,0,0-.58,1c.29.89.58,1.8,1,2.67.15.35.32.7.48,1,0,.11,0,.21,0,.32l-.06.9c0,.09,0,.19,0,.29,0,.3-.11.6-.17.9-.11.58-.2,1.16-.26,1.75s-.12,1.31-.16,2a5.64,5.64,0,0,0,.13,1.83,2.62,2.62,0,0,0,.26.62v1.5c0,1.33-.05,2.66-.1,4l0,.76c-.2.83-.39,1.67-.56,2.51l0,.13a50,50,0,0,0-1,5.16c0,.41-.08.83-.07,1.24a7.72,7.72,0,0,0,.15,1.27,5.79,5.79,0,0,0,.38,1.29l0,.07,0,1.37c0,1.13,0,2.25-.07,3.38-.17.51-.34,1-.5,1.54-.26.9-.5,1.8-.68,2.71s-.29,1.76-.39,2.64a22,22,0,0,0-.16,2.56,17.42,17.42,0,0,0,.21,2.6,6.55,6.55,0,0,0,.76,2.45l.15.2c0,.17,0,.34,0,.51,0,.79,0,1.58,0,2.37s0,1.52,0,2.28,0,1.8,0,2.71,0,1.7,0,2.55c-.1,1.33-.39,2.63-.62,3.94,0,.1,0,.19,0,.28a.82.82,0,0,0-.79-.35.84.84,0,0,0-.72.94c.06.32.11.63.19.94a6.39,6.39,0,0,0,.34,1.13,3.8,3.8,0,0,0,.5.85c0,.18,0,.35-.06.53-.12,1.64-.13,3.3-.09,5s0,3.07.05,4.61,0,3.22.06,4.83c0,.79.1,1.58.14,2.37s0,1.53.12,2.29.15,1.35.25,2c.12.83.19,1.66.31,2.49s.22,1.56.38,2.33c.12.6.26,1.19.38,1.79s.25,1.29.34,1.94.15,1.32.23,2,.25,1.52.39,2.28c.07.4.14.8.17,1.2s0,.83,0,1.25a1.14,1.14,0,0,0,.07.32,1.09,1.09,0,0,0-.17.13l-.13.05a2,2,0,0,1-.35.09,13.36,13.36,0,0,0-1.39.33,2,2,0,0,0-1.21.83,3.56,3.56,0,0,0-.33,1.48c0,.45,0,.92,0,1.38a.84.84,0,0,0,1.68,0c0-.47,0-.94,0-1.41a4.43,4.43,0,0,1,.06-.51l0-.06h0l0,0,.15-.06c.26-.08.53-.16.8-.22a5.71,5.71,0,0,0,1.35-.35c.22-.09.76-.17,1-.65a3.09,3.09,0,0,0,.1-1.33,17.43,17.43,0,0,0-.11-2c-.14-1-.36-1.94-.49-2.92s-.21-1.94-.38-2.9-.37-1.79-.55-2.69c-.11-.54-.2-1.09-.29-1.64a.87.87,0,0,0,.7.4.85.85,0,0,0,.71-.39l.21-.09.3-.08.29,0c.25,0,.5,0,.75,0a4,4,0,0,1,.5.06h0l0,.12a8,8,0,0,1,.1.84c0,.55,0,1.11.05,1.67s0,1.22,0,1.82c-.09,1.22-.25,2.43-.33,3.65-.05.8-.08,1.6-.08,2.41l0,1.15c0,.37,0,.73,0,1.09a1.69,1.69,0,0,0,.5,1.15,2.29,2.29,0,0,0,1.21.33,4.48,4.48,0,0,0,.62.06l.63.07.1,0,0,0h0l0,0,0,0,0,.05a.78.78,0,0,1,.05.14c0,.12.07.25.1.37a13.83,13.83,0,0,1,.2,1.7,5.3,5.3,0,0,1,0,.69,8.58,8.58,0,0,1-.09,1h-3c-1.71,0-3.43,0-5.15.1s-3.4.15-5.11.27l-.31,0H191l-.4,0h-.1l-1.15.08a28.52,28.52,0,0,0-5.12.77c-.86.22-1.7.47-2.54.74-.41.13-2.12.46-2.35.49a2.93,2.93,0,0,0-1.25.55,4,4,0,0,0-1.43,2.12c-.22.72-.36,1.46-.51,2.2a19.87,19.87,0,0,1-.58,2.27c-.12.33-.25.66-.39,1-.3.7-.66,1.39-1,2.08-.16.35-.34.71-.48,1.07a5,5,0,0,0-.27,1.21,4.49,4.49,0,0,0,.06,1.37,3.35,3.35,0,0,0,.51,1.23,6.51,6.51,0,0,0,.82,1,6.71,6.71,0,0,0,.93.74,1.26,1.26,0,0,1,.48.76c0,.43,0,.86,0,1.29-.06.73-.2,1.46-.32,2.18s-.22,1.57-.35,2.36c0,.18-.06.37-.1.56s0,.22-.07.34,0,.13,0,.2c-.07.37-.14.74-.19,1.12s-.11.81-.17,1.22-.12.73-.17,1.09-.11.81-.15,1.21-.05.78-.07,1.17v0c-.05.77-.12,1.53-.19,2.28s-.2,1.54-.29,2.3c-.18,1.49-.33,3-.51,4.47-.11.84-.21,1.67-.35,2.51s-.26,1.46-.4,2.2a1.17,1.17,0,0,1-.05.2l-.06.13-.06.11-.1.12-.09.09-.1.07-.21.12a8.19,8.19,0,0,0-2.09,1.34,10.84,10.84,0,0,0-1.39,1.77c-.39.6-.78,1.2-1.14,1.81a6,6,0,0,0-.56,1.24q-.15.51-.27,1a.85.85,0,0,0,.59,1,.76.76,0,0,0,.21,0,.85.85,0,0,0,.82-.62c.09-.36.18-.72.29-1.07.06-.16.13-.32.2-.48.21-.4.46-.79.71-1.18s.45-.7.68-1.05.53-.73.82-1.08l.3-.3.35-.27,0,0,0,0h0c.32-.21.66-.4,1-.58a3.87,3.87,0,0,0,.93-.57,2.7,2.7,0,0,0,.63-.86,4.36,4.36,0,0,0,.3-1.07l.18-.95c.27-1.47.46-3,.63-4.45s.32-3,.53-4.54.32-3.07.41-4.61c.07-.82.21-1.62.33-2.43s.21-1.59.37-2.37c.11-.56.22-1.12.29-1.69s.2-1.39.31-2.08.23-1.25.28-1.89,0-1,0-1.49a4.48,4.48,0,0,0-1.14-2.09,8.27,8.27,0,0,1-.66-.51c-.14-.13-.27-.26-.4-.4l-.23-.3-.18-.29c0-.08-.07-.17-.11-.26a2.86,2.86,0,0,1-.07-.28c0-.11,0-.21,0-.31v-.31q0-.3.09-.6c0-.1,0-.2.08-.3h0a10.43,10.43,0,0,1,.48-1.08c.15-.32.31-.63.47-1a21.73,21.73,0,0,0,1-2.38,19.54,19.54,0,0,0,.59-2.37c.15-.7.28-1.41.5-2.1.06-.15.12-.29.19-.44l.13-.23.15-.19.13-.14.23-.18.25-.14h0c.14.1,4.58-1.19,6.07-1.52a36.93,36.93,0,0,1,4.19-.54h.07c.44,0,.88,0,1.32-.09H191l.32,0h0l2.47-.14c3.42-.18,6.85-.22,10.27-.23h7.81c.77,0,1.54,0,2.31,0a10.82,10.82,0,0,1,1.29.17,16.57,16.57,0,0,1,1.84.48,8.25,8.25,0,0,1,.93.38c.29.15.58.32.86.5s.58.46.88.69l1.23,1.08a12.28,12.28,0,0,1,1.94,3.05.42.42,0,0,0,0-.1c.31.88.6,1.77.94,2.64.14.37.3.74.46,1.1s.27.7.4,1.05h0c.09.27.18.56.28.83s.13.31.2.47,0,.07,0,.1l0,.24c0,.59,0,1.2,0,1.8l0,.23a2.33,2.33,0,0,1-.07.25c0,.11-.09.21-.13.32l-.15.25-.07.09-.25.24-.28.22a4.07,4.07,0,0,1-.53.31l.09,0-1.36.68a10.24,10.24,0,0,1-1.12.49,2.36,2.36,0,0,1-.38.1l-.16,0,0-.2c-.08-.41-.16-.82-.23-1.23a10.82,10.82,0,0,1-.18-1.14v-.13a.84.84,0,1,0-1.68,0,6.9,6.9,0,0,0,.16,1.29c.1.61.22,1.22.34,1.83.33,1.7.63,3.41.94,5.11.14.85.27,1.71.42,2.56s.32,1.63.47,2.46c.33,1.74.53,3.51.81,5.26s.53,3.43.74,5.16c.11.84.23,1.69.33,2.53s.18,1.53.31,2.29c.07.42.16.84.25,1.26s.13.71.23,1a2.11,2.11,0,0,0,.63,1l.89.77A22,22,0,0,1,227,233l0,0,0,0,0,0,0,0c.29.34.56.68.82,1a30.17,30.17,0,0,1,1.61,2.82.81.81,0,0,0-.21.54.85.85,0,0,0,.84.84,1.08,1.08,0,0,0,.19,0,.92.92,0,0,0,.4.11.45.45,0,0,0,.11,0l.05,0,.31.11.46.18c.35.13.68.28,1,.42l2.05.85c.67.28,1.33.54,2,.86l1.56.77,2,1c.58.3,1.17.57,1.75.85l1,.49c.36.19.74.34,1.11.5.79.35,1.57.73,2.34,1.09s1.47.69,2.24,1,1.48.55,2.21.85,1.49.59,2.2.94l0,0,.05,0,.05,0,0,0,2.15,1.15c1.48.79,3,1.58,4.45,2.34.77.4,1.53.8,2.28,1.24s1.43.83,2.12,1.29l1.61,1.08-.09-.06c.5.34,1,.69,1.46,1s.94.64,1.42,1l-.06,0c.62.42,1.22.86,1.85,1.27l-.09-.06c.82.56,1.61,1.17,2.4,1.78.41.32.84.63,1.25,1s.71.59,1.06.89.45.43.66.66.28.35.41.52l.49.63c.12.15.88,1.2.94,1.28a4.82,4.82,0,0,1,.36.43c.11.14.2.31.31.45l.66,1,0,0,.05.07v0c.23.36.45.73.65,1.11.28.56.55,1.13.8,1.7s.48,1.22.69,1.84v-.06c0,.05,0,.09,0,.13v0l0,.1c.4,1.14.73,2.31,1.1,3.46s.82,2.4,1.21,3.61c.26.79.5,1.58.75,2.36s.47,1.63.74,2.44.53,1.58.79,2.36.57,1.53.84,2.29h0l0,.06s0,0,0-.05c.14.42.25.85.37,1.28s.2.6.27.91a19.64,19.64,0,0,1,.66,2.26l-.33-.18c-.57-.29-1.11-.61-1.66-.94s-.87-.47-1.32-.69h0l-.09-.05,0,0c-.77-.39-1.51-.83-2.26-1.27a30,30,0,0,0-2.73-1.5c-.82-.39-1.67-.72-2.51-1.06l-1.21-.47c-.47-.16-.95-.31-1.43-.45l-2.26-.65c-.79-.22-1.57-.46-2.37-.64s-1.56-.37-2.34-.52-1.59-.26-2.38-.4c-1.62-.3-3.23-.55-4.86-.75-.77-.09-1.54-.2-2.31-.26a11,11,0,0,1-1.38-.23c-.51-.1-1-.21-1.53-.29l-1.48-.21c-1.23-.16-2.46-.35-3.69-.49-1-.12-2.07-.2-3.1-.28s-1.91-.07-2.86-.13h-.05c-.8-.06-1.6-.14-2.4-.18l-1.94-.11-3.66-.3c-1.35-.1-2.7-.23-4-.32-.64-.05-1.28-.09-1.93-.1l-2.22,0c-1.68-.06-3.37-.06-5.06-.06s-3.44,0-5.16,0c-1.44,0-2.89-.11-4.33-.14-1.6,0-3.19,0-4.79,0l-4.79,0c-1.51,0-3,.08-4.52.12s-2.71.11-4.07.2c-.44,0-.89,0-1.34,0s-1.17,0-1.76,0c-1.56.05-3.11.15-4.67.24-1.39.07-2.78.11-4.16.2-1.63.11-3.26.14-4.88.28s-3.43.34-5.14.53c-.8.09-1.59.19-2.39.27s-1.59.15-2.37.25l-2.48.32c-.81.1-1.61.2-2.42.33s-1.45.22-2.18.32-1.63.22-2.45.31c-1.66.19-3.33.36-5,.52s-3.35.3-5,.47-3.37.37-5,.66-3.18.61-4.76,1c-.81.19-1.62.4-2.42.61s-1.34.33-2,.47l-2.83.59h0l-.09,0h0l-2,.42-2.2.5c-.7.17-1.39.37-2.08.55-1.54.39-3.08.82-4.62,1.18l-2.45.55c-.81.19-1.61.4-2.42.6a4.17,4.17,0,0,1-2.35,0c-.34-.2-.14-.89-.1-1.11.11-.62.22-1.25.29-1.87.16-1.32.39-2.63.65-3.93.17-.78.36-1.56.56-2.33s.41-1.63.67-2.42.53-1.58.77-2.38.47-1.6.73-2.4c.19-.52.41-1,.65-1.52.45-.89,1-1.76,1.41-2.64s.91-1.73,1.45-2.55a10.59,10.59,0,0,1,.66-.84c.77-.87,1.63-1.66,2.44-2.5.45-.46.89-.94,1.32-1.43s.72-.88,1.08-1.32c.26-.28.54-.54.83-.8s.56-.52.85-.77h0l0,0,0,0h0c1.09-.95,2.2-1.9,3.34-2.8s2.31-1.89,3.54-2.72c1-.64,1.92-1.29,2.87-1.94.67-.44,1.36-.84,2-1.24s1.38-.8,2.1-1.17,1.3-.58,1.95-.87,1.21-.58,1.81-.88h0l.08,0h0c.8-.39,1.59-.77,2.4-1.12s1.45-.67,2.2-1l2.27-.88c.32-.12.64-.24,1-.38s.68-.33,1-.5l.05,0,0,0c.53-.26,1.08-.47,1.62-.69l1.56-.65c1.13-.47,2.22-1,3.38-1.43l-.11,0c.68-.24,1.36-.48,2-.74s1.11-.45,1.67-.67a6,6,0,0,0,1.67-.93,1.68,1.68,0,0,0,.68-1.27.84.84,0,0,0-1.67-.09l-.07.07-.19.14c-.13.08-.26.16-.4.23-.53.26-1.09.46-1.63.69s-1.25.5-1.88.72-1,.34-1.48.53c-.77.31-1.51.67-2.28,1-.36.16-.73.29-1.09.45s-.71.31-1.07.45l-1,.44a3.88,3.88,0,0,0-.46.22l-.07,0-.16.08-.46.23-.06,0a10.14,10.14,0,0,1-1,.39l-1.09.43c-.73.29-1.47.55-2.19.87s-1.6.7-2.39,1.07-1.45.71-2.18,1.07l-.07,0h0l-.17.08c-.74.36-1.5.67-2.25,1s-1.56.79-2.32,1.23-1.48.82-2.18,1.29-1.37.93-2.06,1.4l0,0-.08,0h0c-.68.45-1.38.9-2,1.39s-1.34,1-2,1.55-1.35,1.07-2,1.63l-2,1.68-1,.85c-.29.27-.59.53-.87.81s-.61.7-.9,1.06-.49.59-.75.88c-.55.61-1.12,1.21-1.7,1.79s-1.2,1.18-1.77,1.82a12.4,12.4,0,0,0-1.52,2.19c-.44.77-.83,1.56-1.25,2.34s-.85,1.52-1.21,2.32a45.1,45.1,0,0,0-1.65,4.92c-.27.83-.55,1.65-.78,2.49s-.42,1.6-.61,2.4-.36,1.6-.51,2.41-.28,1.61-.38,2.42c0,.37-.09.74-.14,1.11s-.13.76-.2,1.15-.14.8-.22,1.2c0,.19-.07.37-.09.56h0c-.1,0-.21,0-.31.09a4.2,4.2,0,0,0-1,.6,3,3,0,0,0-.86.94,6.61,6.61,0,0,0-.62,2.44c-.08.83-.11,1.66-.12,2.5a9.49,9.49,0,0,0,0,1.19,4.72,4.72,0,0,0,.29,1.22c.12.32,3,1.72,3.63,2.15s1.31.87,2,1.27,1.38.75,2.09,1.1l0,0,.64.32h0l0,0,.05,0h0c.71.36,1.42.72,2.15,1s1.62.68,2.44,1,1.62.54,2.44.8c1.68.52,3.4.91,5.1,1.32s3.47.79,5.21,1.15,3.44.62,5.16.9c.84.14,1.69.3,2.55.39s1.77.16,2.66.23,1.74.16,2.61.21l2.76.16c1.76.09,3.51.21,5.27.29s3.4.13,5.09.23h.06l.94.07c3.3.25,6.62.31,9.94.32a.84.84,0,1,0,0-1.68c-3,0-6-.06-9-.25-.74,0-1.47-.12-2.21-.16l-2.22-.1c-1.75-.07-3.49-.14-5.23-.25s-3.54-.18-5.31-.3h-.06l-2.28-.19c-.86-.07-1.73-.14-2.6-.23s-1.74-.24-2.61-.38c-1.68-.28-3.38-.54-5-.87l-2.19-.48c-1.74-.39-3.48-.79-5.2-1.21s-3.28-.87-4.89-1.42c-.64-.23-1.26-.48-1.89-.74s-1.3-.53-1.93-.84l-1.56-.78h0l-.07,0h0l-.27-.14,0,0-.06,0,0,0h0a34.23,34.23,0,0,1-3.42-2c-.73-.52-3.39-1.77-3.39-1.81,0-.44,0-1.37,0-1.81s0-.95,0-1.43a13.32,13.32,0,0,1,.19-1.53c0-.17.09-.34.14-.51s.07-.18.11-.27l.08-.14,0,0,.07-.07c.15-.13.31-.25.48-.37s5.9-.91,6.67-1.09c1.49-.37,3-.67,4.49-1.06s2.9-.74,4.35-1.13,2.79-.68,4.19-1l-.11,0,3.19-.66-.11,0c.66-.13,1.32-.26,2-.41s1.26-.32,1.88-.48c1.36-.35,2.73-.67,4.1-1s2.9-.53,4.36-.72,3-.34,4.48-.48,3.08-.28,4.61-.44l2.21-.24c.72-.07,1.44-.14,2.16-.23,3.17-.41,6.33-.94,9.52-1.28.82-.09,1.64-.15,2.46-.25l2.34-.27c1.73-.2,3.46-.39,5.2-.51.6,0,1.21-.07,1.82-.09l4.39-.23c1.48-.06,3-.16,4.44-.23,1.18-.06,2.37-.12,3.55-.13h1c.4,0,.8,0,1.2-.07,1.37-.09,2.74-.14,4.11-.18s2.74-.09,4.11-.1c2.95,0,5.91-.08,8.86-.05,1.48,0,3,.1,4.43.13,1.65,0,3.31,0,5,0s3.44,0,5.16,0c1.4,0,2.79.05,4.19.14l.51,0h0c1,.07,2.08.18,3.12.26l2.9.22c.78.07,1.55.14,2.33.18l1.68.09h.06c.82.06,1.65.14,2.48.18.65,0,1.31,0,2,.08h0c1.55.12,3.1.26,4.65.48s3,.35,4.54.65a19.57,19.57,0,0,0,2.14.38c1.09.1,2.18.24,3.27.38s2.2.33,3.29.52l1.74.3c.49.08,1,.16,1.47.26,1.3.27,2.59.6,3.87,1s2.51.68,3.74,1.09c.72.26,1.42.55,2.12.84s1.43.59,2.13.94l-.06,0,.07,0h0c.91.47,1.77,1,2.64,1.52s1.51.84,2.29,1.23c.37.19.73.4,1.09.62s.89.51,1.34.74.79.43,1.17.67l.1.07a4.21,4.21,0,0,1,.65.75,3.47,3.47,0,0,1,.21,1c0,.47.07.94.11,1.41s0,.85,0,1.27v.05a5.51,5.51,0,0,1-.06.57s0,.09,0,.14l0,.11-.07.13c-.24.33-.51.63-.77.93s-.51.57-.78.84-.55.6-.85.88-.5.4-.76.58a10.67,10.67,0,0,1-1,.57c-1.09.54-2.23.94-3.36,1.37s-2.08.86-3.14,1.23c-.6.21-1.19.4-1.8.57l-1.82.5c-1.22.34-2.46.6-3.71.85-.71.15-1.43.27-2.14.4s-1.52.27-2.29.38-1.52.23-2.27.36l-2.28.43c-.82.14-1.63.3-2.45.42s-1.71.24-2.56.34c-1.69.2-3.37.43-5,.69-.82.13-1.64.26-2.47.36l-2.47.32c-.88.1-1.76.16-2.64.23s-1.76.16-2.64.22h.12l-.31,0c-1.72.1-3.45.07-5.18.06s-3.32,0-5,0-3.38,0-5.07-.06c-.86,0-1.72,0-2.58-.08l-1.24,0c-.24,0-.47,0-.71,0h0l1.36-1.64a10.9,10.9,0,0,0,.77-1,11.68,11.68,0,0,0,.63-1.08c.19-.38.39-.75.55-1.14a11.84,11.84,0,0,0,.43-1.18c.24-.82.51-1.63.73-2.46s.4-1.59.65-2.36c.17-.47.38-.93.51-1.41a14,14,0,0,0,.31-1.46,11.86,11.86,0,0,0,.2-1.35c0-.49.07-1,.08-1.47.06-1.68.07-3.37.08-5.05v-2.42a11.53,11.53,0,0,0,0-1.18c0-.3-.09-.59-.15-.89s-.1-.45-.17-.67.84-.45,1.44-.41h0c1.48.11,3,.26,4.43.38.83.08,1.66.14,2.49.23s1.41.17,2.11.26c1.31.17,2.63.32,3.94.43.77.06,1.53.1,2.3.17l2.12.17c1.49.12,3,.27,4.45.44s3.21.38,4.82.62,3,.47,4.51.69,3,.44,4.54.73l-.11,0,.27.06c.89.18,1.78.4,2.66.65s1.82.57,2.74.83a26.77,26.77,0,0,0,2.78.67c.68.13,1.37.22,2.05.35.26.06.51.13.76.21.5.19,1,.44,1.46.65s1,.42,1.47.66a9.46,9.46,0,0,1,1,.57,17.62,17.62,0,0,1,1.5,1.21l0,0,.08.07h0a6.76,6.76,0,0,0,.8.61c.26.16.53.32.78.49a14.33,14.33,0,0,1,1.33,1l0,0,.06.05,0,0h0c.28.26.57.51.83.8l.06.08a.88.88,0,0,0-.4.22c-.18.11-.36.21-.53.33s-.4.26-.61.37a26,26,0,0,1-2.61,1.08,35.64,35.64,0,0,1-3.67,1l-2,.42-1.72.38c-1.54.31-3.1.57-4.66.82s-3.26.55-4.9.75-3.39.37-5.07.6l-2.55.39-2.6.4c-.83.13-1.66.27-2.49.38s-1.74.22-2.62.31c-1.69.18-3.4.34-5.09.54-.84.1-1.66.23-2.49.35s-1.64.18-2.47.27c-1.67.17-3.32.47-5,.65-.86.09-1.71.19-2.57.3s-1.7.23-2.56.29c-.65,0-1.3,0-2,0a.84.84,0,0,0,0,1.68h.1c.85,0,1.69,0,2.53-.09s1.75-.21,2.63-.33l2.55-.28,2.4-.33c.86-.12,1.71-.23,2.56-.31s1.69-.18,2.54-.3,1.65-.24,2.48-.34,1.67-.17,2.51-.26c1.74-.17,3.48-.35,5.21-.6l5.07-.78c.83-.13,1.67-.28,2.51-.38l2.58-.3c1.66-.19,3.32-.39,5-.66s3.35-.54,5-.85,3.38-.68,5.07-1c.85-.19,1.7-.41,2.53-.64a22.5,22.5,0,0,0,2.44-.81l1.1-.44c.36-.16.73-.31,1.08-.5s.47-.3.71-.45,1.51-.86,1.64-.93a.86.86,0,0,0,.3-1.15,5.86,5.86,0,0,0-.51-.69,7.57,7.57,0,0,0-.53-.6c-.32-.32-.66-.62-1-.91s-.72-.55-1.1-.81-.76-.48-1.13-.72l-.43-.34a16.41,16.41,0,0,0-2.14-1.67,20.9,20.9,0,0,0-2.43-1.17c-.42-.19-.83-.42-1.27-.58a9.45,9.45,0,0,0-1.07-.32c-.37-.08-.74-.13-1.11-.19s-.92-.16-1.38-.25q-1-.21-2-.48c-.68-.19-1.35-.4-2-.61a38.92,38.92,0,0,0-4-1c-1.3-.27-2.61-.46-3.92-.65l-4-.6c-1.34-.2-2.69-.41-4-.58s-2.74-.33-4.12-.47c-2.9-.28-5.81-.43-8.71-.74-1.42-.15-2.84-.36-4.27-.51l-2.43-.22L231,284c-1.48-.13-3-.25-4.45-.26s-3.2,0-4.79,0c-.76,0-1.51,0-2.27.08l-1.23.07-.53,0h-.28c-.15,0-.3,0-.44,0-.67,0-1.34.08-2,.08h-5.82c-1.4,0-2.8,0-4.2,0-1.2,0-2.4.06-3.59.07l-3.9,0q-2.37,0-4.74.15l-2.12.1c-.9.05-1.79.08-2.69.1-1.59.05-3.17.13-4.76.2-.88,0-1.77.09-2.65.11s-1.7,0-2.55.06c-1.62.05-3.23.18-4.84.3s-3.27.27-4.9.4-3.5.24-5.24.41-3.26.37-4.88.56-3.54.45-5.32.66c-3.28.38-6.54.84-9.81,1.3-1.67.23-3.33.51-5,.82s-3.06.52-4.58.82c-.83.17-1.65.33-2.48.47s-1.62.26-2.43.41c-1.59.3-3.18.66-4.74,1.07l-2.53.66c-.73.19-1.46.39-2.18.63s-1.59.6-2.37.95l-.62.29-.11.05a4,4,0,0,0-.58.31c-.36.2-.7.41-1,.64-.65.43-1.28.88-1.89,1.37-.43.34-1,.72-1,1.33a.84.84,0,0,0,1.62.32l0,0a23.3,23.3,0,0,1,1.94-1.45,12.62,12.62,0,0,1,1.49-.91l.07,0,.14-.06,0,0a26.4,26.4,0,0,1,2.57-1.09c1.37-.47,2.78-.8,4.19-1.17s2.87-.73,4.32-1,2.65-.46,4-.7,2.53-.49,3.79-.71c1.58-.27,3.15-.58,4.72-.84s3.34-.52,5-.75l2.4-.32,2.38-.33,5.13-.62c3.39-.42,6.77-.88,10.17-1.14a.76.76,0,0,1,.82.65c0,1.76-.11,3.51-.14,5.26a31.44,31.44,0,0,0,.2,4.95,19,19,0,0,0,.54,2.6c.24.79.53,1.58.83,2.36s.64,1.5,1,2.24.75,1.52,1.17,2.25.86,1.46,1.31,2.18.92,1.39,1.38,2.08v0a23.7,23.7,0,0,0,1.86,2.49q1,1.11,2,2.13a13.12,13.12,0,0,0,2,1.67,20.85,20.85,0,0,0,2.37,1.29c1.47.72,3,1.36,4.44,2.07l2,1a10,10,0,0,0,2.49.83c.82.14,1.63.26,2.44.41s1.61.27,2.41.43l.15,0c.35.07.71.15,1.07.21A21.34,21.34,0,0,0,198,325c.55.05,1.11.09,1.66.09l.68,0a23.86,23.86,0,0,0,2.39-.23c.37-.06.74-.13,1.11-.22s.82-.3,1.23-.45a14.65,14.65,0,0,1,1.43-.43c.54-.13,1.07-.29,1.59-.47s.78-.26,1.15-.4.78-.31,1.16-.48.77-.31,1.14-.49.79-.39,1.17-.6a17.47,17.47,0,0,0,2-1.32c.3-.22.6-.46.89-.69s.65-.5,1-.77.62-.62.91-.95.51-.58.74-.89c.5-.65,1-1.33,1.44-2,.25-.35,1.58-.3,1.73-.33h0c.8,0,1.6,0,2.4.05l2.58.06,5.06.06c1.69,0,3.38,0,5.07,0h2.54c.89,0,1.78-.05,2.66-.11s1.79-.15,2.69-.22,1.75-.14,2.62-.25l2.43-.31c.84-.1,1.67-.25,2.5-.37,1.67-.26,3.34-.47,5-.68.85-.1,1.7-.22,2.55-.35l2.43-.42c.82-.15,1.64-.32,2.47-.46s1.69-.26,2.54-.39c1.67-.27,3.33-.59,5-.94s3.25-.77,4.85-1.23c.79-.23,1.58-.5,2.35-.8s1.42-.58,2.14-.86a27.53,27.53,0,0,0,4.59-2,9.18,9.18,0,0,0,1.08-.77,11.5,11.5,0,0,0,.86-.85c.55-.57,1.09-1.14,1.59-1.75a4.06,4.06,0,0,0,.66-1,4,4,0,0,0,.23-1.19,10.44,10.44,0,0,0,0-1.25C290.39,297.93,290.34,297.51,290.31,297.1ZM199.15,157.28c0-.1,0-.2,0-.31s0-.21.05-.32.06-.22.09-.33a.85.85,0,0,0,.07-.89v0a.77.77,0,0,0,0-.15l0-.1c0-.08.07-.15.1-.23l.18-.29.14-.18.14-.15a.84.84,0,0,0,0-1.18.85.85,0,0,0-1.19,0,4.18,4.18,0,0,0-.91,1.35c-.09-.69-.17-1.38-.23-2.08v0c-.07-1.16-.07-2.33-.08-3.5s0-2.15,0-3.23.06-2.29.07-3.44c0-.45,0-.9,0-1.35a4.34,4.34,0,0,0,2.15.1,6,6,0,0,0,1.09-.33,6.26,6.26,0,0,1,.1.74c0,.35,0,.7,0,1.06-.06.77-.17,1.53-.25,2.3s-.12,1.62-.14,2.43c0,1.55.19,3.09.3,4.63.05.77.08,1.54.1,2.31s0,1.58,0,2.37c0,0,0,.09,0,.13h-.45a.78.78,0,0,0-.37-.09.85.85,0,0,0-.84.84.86.86,0,0,0,.33.68,1.3,1.3,0,0,0,.64.23l.2,0-.1.17-.09.12-.1.09-.09.07-.06,0-.11.05h-.08l-.06,0-.06-.06a.93.93,0,0,1-.14-.14l-.12-.15-.1-.17a2.55,2.55,0,0,1-.13-.29l-.09-.3C199.18,157.5,199.16,157.39,199.15,157.28Zm2.95-20.7c0,.12,0,.24,0,.36s0,.28,0,.42l-.09.32a2,2,0,0,1-.11.26l-.12.21-.09.12-.07.06a3.19,3.19,0,0,0-.26-.26,2.69,2.69,0,0,0-2.14-.32c-.29.06-.56.16-.84.24a.87.87,0,0,0-.56.15c.06-.58.12-1.15.22-1.73s.27-1.44.38-2.17.31-1.64.4-2.46a17.26,17.26,0,0,0,.11-2.27c0-.78-.06-1.55-.09-2.32a.81.81,0,0,0,0-.16.46.46,0,0,0,.07-.16c.11-.45.21-.9.34-1.35s.26-.86.4-1.29v0l0-.07,0,.06.24-.65a2.76,2.76,0,0,0,.49.07c0,.28.07.57.1.85h0v0h0c0,.84.07,1.67.08,2.5s.06,1.72.15,2.57a14.38,14.38,0,0,0,.5,2.6c.23.82.46,1.64.64,2.47A16.42,16.42,0,0,1,202.1,136.58Zm-1-40.5c.16.37.36.73.56,1.09.36.64.78,1.25,1.12,1.91a1.39,1.39,0,0,1,.12.28,1.46,1.46,0,0,1,.05.2,2.51,2.51,0,0,1,0,.27v.34c0,.16,0,.32-.07.48a1.68,1.68,0,0,1-.09.32,3.65,3.65,0,0,1-.14.35c0,.1-.1.18-.15.27l-.17.22a3.07,3.07,0,0,1-.26.25l-.3.23-.3.17-.22.1-.26.07h-.2l-.17,0-.2-.06-.36-.15h0a14.23,14.23,0,0,0,.24-1.72h0a.41.41,0,0,1,0,.11s0-.08,0-.12a.79.79,0,0,0-.11-.71q0-.81,0-1.62c0-1,0-2.07,0-3.1,0-.43.05-.86.08-1.3.08.3.17.61.27.9S200.91,95.67,201.08,96.08Zm1.63-15.41.17.21.14.24.12.29c0,.1.05.2.08.3l0,.22v.19c0,.14,0,.28-.05.42s-.09.32-.14.48l-.15.36a2.53,2.53,0,0,1-.13.22l-.07.09-.07.07,0,0,0,0h-.26a8.49,8.49,0,0,1-.88-.14,5.25,5.25,0,0,1-.6-.16v-.59c0-1.51-.12-3-.16-4.53l.38.51A21.2,21.2,0,0,0,202.71,80.67Zm-1.06-18.18L202,63c.14.22.27.43.39.66s.09.21.14.31a2.81,2.81,0,0,1,.08.31c0,.24.08.48.11.73s0,.36,0,.55a2.51,2.51,0,0,1,0,.27,1.74,1.74,0,0,1,0,.22c-.05.13-.11.26-.17.39l-.13.22-.14.19-.12.11-.1.08-.13.08-.22.08-.25.07-.15,0c0-.37.07-.74.09-1.11,0-.79.08-1.58.13-2.37h0v-.1c0-.44.06-.88.08-1.33Zm.7-16.65c.06.36.1.71.13,1.08a10.46,10.46,0,0,1,0,1.12c0,.2,0,.4-.08.6s-.05.18-.07.26l0,.08a1.62,1.62,0,0,1-.1.18l-.11.15-.15.15-.08.06-.07,0-.07,0-.1,0a.48.48,0,0,1,0-.12A24.67,24.67,0,0,1,202,46.4l.21-1C202.28,45.57,202.32,45.7,202.35,45.84ZM202,15.35h0Zm-.63,16.1-.06.05-.12,0-.18-.05-.14-.05-.13-.08a2.43,2.43,0,0,1-.25-.2,3,3,0,0,1-.25-.25l-.15-.19c0-.09-.11-.17-.15-.26a2.14,2.14,0,0,1-.1-.22l-.09-.34-.06-.48a12,12,0,0,1,0-1.47,24.68,24.68,0,0,1,.41-3.32c.1-.5.22-1,.35-1.49a47.76,47.76,0,0,0,1.24-5c.06-.41.11-.83.15-1.25l.06-.7a4.74,4.74,0,0,0,.05-.65.45.45,0,0,0,0-.11,3.75,3.75,0,0,0,.66-1.1,7,7,0,0,0,.34-1.19c0,.1,0,.21,0,.32-.05,1.65-.07,3.3-.09,4.95s0,3.43,0,5.14c0,1.47,0,3,0,4.42,0,.15,0,.3,0,.45s0,.3,0,.44a.81.81,0,0,0-.55.56c-.1.39-.21.78-.33,1.16-.06.15-.12.31-.19.46a4.05,4.05,0,0,1-.21.35Zm-1.48,15.9c0,.06,0,.11,0,.17v-.09S199.92,47.38,199.93,47.35Zm-1.37,115.1a1.68,1.68,0,0,0-.63.48,1.05,1.05,0,0,0-.15.3c-.06-.52-.13-1-.19-1.57s-.13-1-.2-1.45c.17.41.36.82.56,1.22a4.37,4.37,0,0,0,.29.57,1,1,0,0,0,.5.39Zm2.59-.34a6.85,6.85,0,0,0-1.28,0l-.28.05a.84.84,0,0,0,.23-.57.79.79,0,0,0-.19-.52c-.07-.12-.12-.25-.18-.38v0c-.06-.14-.12-.28-.19-.41a2.1,2.1,0,0,0,.52.15H200a2.13,2.13,0,0,0,1.16-.4,2.91,2.91,0,0,0,.87-1c.06.15.13.29.18.45a12.29,12.29,0,0,1,.32,1.19c0,.23.09.47.11.71s0,.21,0,.32h0v0c0,.19-.05.38-.08.57l-.06.23A2.46,2.46,0,0,0,201.15,162.11Zm18,150.61c-.56.68-1,1.41-1.55,2.12-.21.29-.41.58-.63.86s-.46.56-.7.83l0,0,0,.05,0,0v0a10.31,10.31,0,0,1-.73.75,28.94,28.94,0,0,1-2.43,1.86,17.35,17.35,0,0,1-1.77,1c-.52.25-1.06.47-1.59.7s-1,.41-1.43.58h0l0,0-.06,0h0c-.38.13-.76.26-1.15.37s-.74.21-1.11.31a9.76,9.76,0,0,0-1.05.32c-.23.07-.46.14-.69.23l-.6.24-.46.12a20.9,20.9,0,0,1-2.61.32h0c-.62,0-1.24,0-1.86,0h0a25.12,25.12,0,0,1-3-.47l-.62-.13c-.88-.18-1.79-.31-2.68-.48s-1.71-.28-2.57-.44a6.74,6.74,0,0,1-.88-.24c-.66-.24-1.28-.56-1.92-.86l-2-1c-.64-.3-1.29-.57-1.93-.86s-1.31-.61-1.95-.93l0,0-.08,0h0a21.21,21.21,0,0,1-1.91-1.08c-.33-.23-.65-.48-1-.74a32.63,32.63,0,0,1-2.67-2.72,20.12,20.12,0,0,1-1.57-2.1l-.76-1.12h0a44,44,0,0,1-2.74-4.63c-.35-.7-.68-1.4-1-2.12s-.53-1.32-.77-2v0l0-.06v0a19.58,19.58,0,0,1-.56-2,25.39,25.39,0,0,1-.36-2.6c-.17-2.87.11-5.73.11-8.6,0-.38,0-.84.32-.86l2.36-.19c1.58-.14,3.17-.26,4.75-.37.78-.05,1.57-.1,2.35-.13s1.67,0,2.51-.06c1.62,0,3.25-.12,4.88-.19.82,0,1.65-.09,2.47-.11s1.78,0,2.67-.09c1.58-.1,3.17-.16,4.75-.21,1.4,0,2.8-.08,4.2-.09,2.94,0,5.88-.12,8.82-.13h7c.82,0,1.64-.06,2.46-.11h.14l.32,0,1-.07,2-.09c1.38,0,2.77-.05,4.15-.05.34,0,.53.56.64.92a4.43,4.43,0,0,1,.13.49l.06.26,0-.11a7.37,7.37,0,0,1,.13.82c0,.71,0,1.44,0,2.15s0,1.57,0,2.35c0,1.57,0,3.14-.11,4.7a11.51,11.51,0,0,1-.13,1.18c-.06.4-.14.79-.22,1.19a7.27,7.27,0,0,1-.2.77c-.19.53-.41,1-.57,1.59s-.3,1.13-.45,1.7-.31,1.14-.49,1.69-.31,1-.49,1.56a9.51,9.51,0,0,1-.48,1.09c-.24.46-.48.92-.76,1.36-.44.64-1,1.22-1.46,1.82S219.6,312.13,219.13,312.72Z"/><path d="M223.05,200.11a.85.85,0,0,0,.84-.84,2.2,2.2,0,0,0-.29-1.12,3.86,3.86,0,0,0-1.51-1.46,9.89,9.89,0,0,0-1.08-.54,6.9,6.9,0,0,0-1.1-.41,10.83,10.83,0,0,0-1.12-.29h-.1l-1.18-.22q-.94-.19-1.86-.45c-.58-.17-1.15-.34-1.73-.46A15.77,15.77,0,0,0,212,194l-.5,0h-.1a.82.82,0,0,0-.27,0H211c-.43,0-.86-.06-1.28-.07-1.7,0-3.41,0-5.1,0s-3.42,0-5.12.11-3.37.11-5,.17l-2.66.08c-.87,0-1.74.1-2.6.17-1.65.13-3.29.32-4.92.53-.79.1-1.58.18-2.36.32a20.85,20.85,0,0,0-2.57.61,9.59,9.59,0,0,0-2.38.88,3.19,3.19,0,0,0-.55.39,1.88,1.88,0,0,0-.56.88,2.6,2.6,0,0,0-.12.74.84.84,0,0,0,1.68,0v-.07h0l.06-.23,0,0h0l0,0,.11-.09.41-.24a4.07,4.07,0,0,1,.44-.18c.52-.18,1.06-.32,1.58-.48s1-.27,1.57-.38c.74-.15,1.48-.24,2.22-.33s1.45-.19,2.18-.27,1.51-.19,2.26-.25l2.18-.18h.13c1.73-.12,3.47-.14,5.21-.2l2.51-.07,2.46-.11c1.7,0,3.41,0,5.11-.06h2.64c.83,0,1.67,0,2.51.08h0a1.51,1.51,0,0,0,.3,0l.37,0a15.4,15.4,0,0,1,1.64.23c.82.18,1.62.43,2.43.64s1.69.37,2.54.53h0l.44.11c.29.08.57.15.85.25a13.33,13.33,0,0,1,1.23.52l-.06,0,.07,0h0a6.32,6.32,0,0,1,.56.33,3.4,3.4,0,0,1,.3.23l.1.09.21.29.06.09,0,0,0,.1a.2.2,0,0,0,0,.07v.06A.84.84,0,0,0,223.05,200.11Z"/><path d="M191.22,182.58h0Z"/><path d="M172.41,236.2c-.4.1-.78.22-1.17.34s-.63.22-1,.29a.86.86,0,0,0-.7.83.85.85,0,0,0,.84.84,1.69,1.69,0,0,0,.54-.12l.59-.18c.41-.13.82-.26,1.23-.36.88-.23,1.76-.41,2.64-.6l1.9-.37c1.74-.31,3.48-.62,5.23-.79.88-.09,1.76-.14,2.64-.23l2.61-.24c1.3-.08,2.6-.17,3.91-.22s2.63-.06,3.95-.08c2.87-.05,5.73-.05,8.6-.05h7l2.63,0c.82,0,1.64.07,2.46.12h.08c.76.05,1.51.11,2.26.18s1.61.13,2.41.26a.84.84,0,0,0,.23-1.67c-.8-.12-1.61-.18-2.41-.26s-1.55-.13-2.33-.18-1.62-.11-2.43-.13-1.59,0-2.39,0c-1.76,0-3.51,0-5.27,0h-5.22l-5.11,0c-1.78,0-3.56,0-5.34.13s-3.59.22-5.38.39c-.88.09-1.76.16-2.64.23s-1.71.18-2.56.32c-1.73.27-3.45.57-5.17.92C174.17,235.79,173.28,236,172.41,236.2Z"/><polygon points="281.05 295.52 281.05 295.52 281.05 295.52 281.05 295.52"/><path d="M153.84,308.94c1.5.05,3,.08,4.5.14,1.67.05,3.34.07,5,.07h2.3c.78,0,1.55,0,2.33.05h0a.84.84,0,0,0,0-1.68c-1-.06-2,0-3,0h-2.87q-2.58,0-5.16-.12c-1.71-.06-3.42-.07-5.13-.18-.83-.05-1.66-.12-2.48-.18h.11l-.5,0h0l-1.34-.1-5.3-.45a46.93,46.93,0,0,1-5.14-.67l-1.58-.36-.77-.17-.33-.06c-.17-.05-.35-.07-.53-.11l-.75-.15.11,0-.39-.08h0l-.64-.13-.19,0-1.36-.28.08,0-.17,0,.07,0-.41-.08.11,0c-1.23-.26-2.45-.59-3.68-.86-.6-.13-1.21-.26-1.81-.41s-1.17-.27-1.75-.46l-.19-.07,0,0c-.36-.12-.72-.27-1.08-.4l-1.09-.38h0l-.1,0h0a52.75,52.75,0,0,1-5.71-2.23h0a.86.86,0,0,0-.64-.29.85.85,0,0,0-.84.84,1.08,1.08,0,0,0,.67.93c.3.15.61.29.91.42.64.28,1.29.54,2,.79,1.2.47,2.42.89,3.64,1.32h0c.66.23,1.3.48,1.95.7l-.1,0c.62.21,1.26.36,1.9.51s1.21.28,1.81.41c1.28.28,2.55.62,3.83.89l.35.07-.11,0,1.31.26h-.07l.18,0,.17,0,1,.2-.11,0,1.28.26.28.05a5.23,5.23,0,0,0,.54.12c1.12.25,2.24.52,3.38.69,1.71.26,3.43.4,5.16.55s3.57.31,5.36.43h0l.49,0h0C150.84,308.78,152.34,308.9,153.84,308.94Z"/><polygon points="120.93 301.78 120.93 301.78 120.93 301.78 120.93 301.78"/><path d="M132.08,304.66l.08,0h0Z"/><path d="M231.49,280.56Z"/></g></svg>